<svg width="60" height="60" viewBox="0 0 60 60" fill="none" xmlns="http://www.w3.org/2000/svg">
<path d="M0 30C0 13.4315 13.4315 0 30 0C46.5685 0 60 13.4315 60 30C60 46.5685 46.5685 60 30 60C13.4315 60 0 46.5685 0 30Z" fill="#DCE7F9"/>
<g clip-path="url(#clip0_4515_65403)">
<path d="M50.474 30.0003C50.474 35.2019 48.5337 39.9501 45.3387 43.5619C43.3449 45.8148 40.8624 47.6255 38.0577 48.8267C37.549 49.0458 37.0284 49.2442 36.4989 49.4209C35.8323 49.644 35.1545 49.8322 34.4683 49.9848C33.0303 50.3055 31.5348 50.4742 30 50.4742C28.4653 50.4742 26.9697 50.3055 25.5318 49.9848C25.2595 49.9242 24.9893 48.6466 24.7213 48.5753C24.3093 48.4656 23.9024 49.5551 23.5012 49.4209C22.9717 49.2442 22.4511 49.0458 21.9424 48.8267C20.8637 48.3647 21.5233 46.122 20.5493 45.4892C18.991 44.4767 15.8884 44.9483 14.6614 43.5619C11.4663 39.9501 9.52612 35.2019 9.52612 30.0003C9.52612 24.7986 11.4663 20.0504 14.6614 16.4387C16.6552 14.1858 19.1377 12.3751 21.9432 11.1731C22.4519 10.9547 22.9709 10.7572 23.5004 10.5805C24.1672 10.3568 24.8452 10.1684 25.5318 10.0158C26.9697 9.69512 28.4653 9.52637 30 9.52637C31.5348 9.52637 33.0303 9.69512 34.4683 10.0158C35.1549 10.1684 35.8329 10.3568 36.4997 10.5805C37.0292 10.7572 37.5482 10.9547 38.0569 11.1731C40.8624 12.3751 43.3449 14.1858 45.3387 16.4387C48.5337 20.0504 50.474 24.7986 50.474 30.0003Z" fill="#2B70DB"/>
<path d="M45.3384 9.52637V50.4742L42.7816 48.5316L40.2247 50.4742L38.0574 48.8267L37.6687 48.5316L36.4987 49.4209L35.1127 50.4742L34.4681 49.9848L32.5558 48.5316L29.9998 50.4742L27.4437 48.5316L25.5315 49.9848C24.8453 49.8322 24.1675 49.644 23.5009 49.4209L22.3309 48.5316L21.9422 48.8267C19.1374 47.6255 16.6549 45.8148 14.6611 43.5619V9.52637L17.218 11.4682L19.7748 9.52637L21.943 11.1731L22.3309 11.4682L23.5001 10.5805L24.8869 9.52637L25.5315 10.0158L27.4437 11.4682L29.9998 9.52637L32.5558 11.4682L34.4681 10.0158L35.1127 9.52637L36.4995 10.5805L37.6687 11.4682L38.0566 11.1731L40.2247 9.52637L42.7816 11.4682L45.3384 9.52637Z" fill="#DCE7F9"/>
<path d="M34.1447 22.0318H34.1402C33.6094 22.0347 33.0399 22.0369 32.6006 22.0374V16.1435C32.6006 15.7018 32.2425 15.3438 31.8008 15.3438C31.3591 15.3438 31.001 15.7018 31.001 16.1435V22.8315C31.001 23.0202 31.0677 23.2028 31.1893 23.347C31.3109 23.4913 31.4796 23.5879 31.6656 23.6198C31.7235 23.6298 31.7682 23.6374 32.5014 23.6374C32.8594 23.6374 33.3814 23.6356 34.1492 23.6313C34.5909 23.6288 34.947 23.2688 34.9445 22.827C34.942 22.3869 34.5844 22.0318 34.1447 22.0318ZM38.8485 22.0318H38.8439C38.3131 22.0347 37.7437 22.0369 37.3043 22.0374V16.1435C37.3043 15.7018 36.9462 15.3438 36.5045 15.3438C36.0628 15.3438 35.7048 15.7018 35.7048 16.1435V22.8315C35.7048 23.0202 35.7715 23.2028 35.8931 23.347C36.0147 23.4913 36.1834 23.5879 36.3694 23.6198C36.4273 23.6298 36.472 23.6374 37.2049 23.6374C37.5628 23.6374 38.0851 23.6356 38.8529 23.6313C39.2947 23.6288 39.6507 23.2688 39.6482 22.827C39.6457 22.3869 39.2881 22.0318 38.8485 22.0318ZM28.3597 15.6034C27.918 15.6034 27.56 15.9614 27.56 16.4031V23.0967C27.56 23.5384 27.918 23.8965 28.3597 23.8965C28.8014 23.8965 29.1595 23.5384 29.1595 23.0967V16.4031C29.1595 15.9614 28.8014 15.6034 28.3597 15.6034ZM25.0403 19.2424C25.2982 18.8583 25.4357 18.406 25.4352 17.9433C25.4352 16.653 24.3855 15.6034 23.0952 15.6034H21.1508C20.7091 15.6034 20.3511 15.9614 20.3511 16.4031V23.0967C20.3511 23.3088 20.4354 23.5122 20.5853 23.6622C20.7353 23.8122 20.9387 23.8965 21.1508 23.8965H21.1544C21.1545 23.8965 22.942 23.8885 23.4347 23.8885C24.8692 23.8885 26.0362 22.7215 26.0362 21.287C26.0363 20.4582 25.6461 19.7192 25.0403 19.2424ZM23.0952 17.2029C23.5035 17.2029 23.8356 17.535 23.8356 17.9433C23.8356 18.3516 23.5035 18.6837 23.0952 18.6837C22.9506 18.6837 22.6769 18.6845 22.3796 18.6856H21.9507V17.2028L23.0952 17.2029ZM23.4348 22.289C23.1622 22.289 22.4947 22.2914 21.9507 22.2937V20.2868L22.3836 20.2852H23.4348C23.9873 20.2852 24.4367 20.7346 24.4367 21.2871C24.4367 21.8396 23.9873 22.289 23.4348 22.289Z" fill="#2B70DB"/>
<path d="M31.4903 31.436H19.9125C19.4515 31.436 19.0778 31.0623 19.0778 30.6013C19.0778 30.1403 19.4515 29.7666 19.9125 29.7666H31.4904C31.9514 29.7666 32.3251 30.1403 32.3251 30.6013C32.325 31.0623 31.9514 31.436 31.4903 31.436Z" fill="#657272"/>
<path d="M40.0873 31.436H37.9727C37.5117 31.436 37.1379 31.0623 37.1379 30.6013C37.1379 30.1403 37.5117 29.7666 37.9727 29.7666H40.0873C40.5483 29.7666 40.922 30.1403 40.922 30.6013C40.9221 31.0623 40.5484 31.436 40.0873 31.436Z" fill="#C6D0DA"/>
<path d="M32.8621 35.8433H19.9125C19.4515 35.8433 19.0778 35.4695 19.0778 35.0085C19.0778 34.5476 19.4515 34.1738 19.9125 34.1738H32.8621C33.323 34.1738 33.6968 34.5476 33.6968 35.0085C33.6968 35.4695 33.323 35.8433 32.8621 35.8433Z" fill="#657272"/>
<path d="M40.0873 35.8433H37.9727C37.5117 35.8433 37.1379 35.4695 37.1379 35.0085C37.1379 34.5476 37.5117 34.1738 37.9727 34.1738H40.0873C40.5483 34.1738 40.922 34.5476 40.922 35.0085C40.9221 35.4695 40.5484 35.8433 40.0873 35.8433Z" fill="#C6D0DA"/>
<path d="M29.53 40.2515H19.9125C19.4515 40.2515 19.0778 39.8777 19.0778 39.4167C19.0778 38.9558 19.4515 38.582 19.9125 38.582H29.53C29.991 38.582 30.3647 38.9558 30.3647 39.4167C30.3647 39.8777 29.991 40.2515 29.53 40.2515Z" fill="#657272"/>
<path d="M40.0873 40.2515H37.9727C37.5117 40.2515 37.1379 39.8777 37.1379 39.4167C37.1379 38.9558 37.5117 38.582 37.9727 38.582H40.0873C40.5483 38.582 40.922 38.9558 40.922 39.4167C40.9221 39.8777 40.5484 40.2515 40.0873 40.2515Z" fill="#C6D0DA"/>
<path d="M32.8621 44.6577H19.9125C19.4515 44.6577 19.0778 44.284 19.0778 43.823C19.0778 43.362 19.4515 42.9883 19.9125 42.9883H32.8621C33.323 42.9883 33.6968 43.362 33.6968 43.823C33.6968 44.284 33.323 44.6577 32.8621 44.6577Z" fill="#657272"/>
<path d="M40.0873 44.6577H37.9727C37.5117 44.6577 37.1379 44.284 37.1379 43.823C37.1379 43.362 37.5117 42.9883 37.9727 42.9883H40.0873C40.5483 42.9883 40.922 43.362 40.922 43.823C40.9221 44.284 40.5484 44.6577 40.0873 44.6577Z" fill="#C6D0DA"/>
<path d="M43.249 34.4153C42.9051 34.4152 42.5658 34.3365 42.257 34.1852C41.9482 34.0338 41.6781 33.8139 41.4674 33.5421L37.6976 28.6793C36.9347 27.6952 37.114 26.279 38.098 25.5161C39.0822 24.7532 40.4983 24.9325 41.2612 25.9165L42.9536 28.0995L46.2561 22.2518C46.8684 21.1675 48.2436 20.785 49.328 21.3973C50.4122 22.0096 50.7947 23.3849 50.1824 24.4692L45.2125 33.2694C45.016 33.6172 44.7307 33.9066 44.3857 34.1079C44.0407 34.3092 43.6484 34.4153 43.249 34.4153Z" fill="#07B64A"/>
<path d="M43.8906 29.3087L47.8762 22.2515C48.1327 21.7956 48.5404 21.4435 49.0289 21.2562C48.002 20.8594 46.8128 21.2646 46.2554 22.2515L42.953 28.0992L43.8906 29.3087ZM43.0875 33.5417L39.3177 28.6789C38.5548 27.6948 38.7341 26.2786 39.7181 25.5157C39.8918 25.381 40.0842 25.2724 40.2893 25.1934C39.5774 24.92 38.7441 25.0143 38.0973 25.5157C37.1132 26.2786 36.934 27.6948 37.6969 28.6789L41.4667 33.5417C41.6944 33.8354 41.9912 34.0683 42.3306 34.2196C42.6701 34.3709 43.0416 34.436 43.4123 34.409C43.6339 34.3926 43.8519 34.3436 44.0592 34.2634C43.6755 34.116 43.3395 33.8664 43.0875 33.5417Z" fill="#057730"/>
</g>
<defs>
<clipPath id="clip0_4515_65403">
<rect width="40.9478" height="40.9478" fill="white" transform="translate(9.52612 9.52637)"/>
</clipPath>
</defs>
</svg>
