<svg width="41" height="41" viewBox="0 0 41 41" fill="none" xmlns="http://www.w3.org/2000/svg">
<path d="M30.646 14.15C30.6163 14.0387 30.5688 13.9329 30.5053 13.8367C30.3628 13.6036 30.1456 13.4255 29.8891 13.3315C29.6325 13.2374 29.3517 13.233 29.0923 13.3188L24.2969 15.3457H16.6243L11.8289 13.3188C11.7056 13.2759 11.5758 13.2543 11.4453 13.2549C11.2388 13.2548 11.0358 13.3077 10.8555 13.4084C10.6753 13.5092 10.524 13.6544 10.4159 13.8303C10.3523 13.9288 10.3049 14.0367 10.2752 14.15C10.2433 14.2535 10.2282 14.3615 10.2304 14.4697C10.2299 14.7247 10.31 14.9733 10.4593 15.18C10.6086 15.3867 10.8194 15.5409 11.0616 15.6206L16.6243 17.9032V26.2152L14.3871 36.8411C14.3231 37.1485 14.3759 37.4687 14.5353 37.7393C14.6946 38.0099 14.949 38.2113 15.2489 38.3045C15.5487 38.3976 15.8725 38.3756 16.1571 38.2429C16.4417 38.1102 16.6666 37.8762 16.788 37.5867L20.4606 28.7728L23.9599 37.5214C24.0845 37.8326 24.3212 38.0857 24.6233 38.2308C24.9254 38.376 25.271 38.4026 25.5917 38.3055C25.9125 38.2083 26.1852 37.9944 26.356 37.7061C26.5268 37.4177 26.5832 37.0758 26.5143 36.7478L24.2969 26.2152V17.9032L29.8595 15.6206C30.1017 15.5409 30.3125 15.3867 30.4618 15.18C30.6111 14.9733 30.6912 14.7247 30.6907 14.4697C30.692 14.3615 30.6769 14.2537 30.646 14.15Z" fill="#174489"/>
<path opacity="0.5" d="M30.5055 13.8367C30.3532 14.073 30.1257 14.251 29.8597 14.3418L24.297 16.6245V26.2152H16.6244V16.6245L11.0618 14.3418C10.7921 14.2543 10.5629 14.0728 10.416 13.8303C10.5241 13.6544 10.6755 13.5092 10.8557 13.4084C11.0359 13.3077 11.239 13.2548 11.4454 13.2549C11.576 13.2543 11.7057 13.2759 11.8291 13.3188L16.6244 15.3457H24.297L29.0924 13.3188C29.3518 13.233 29.6327 13.2374 29.8892 13.3315C30.1458 13.4255 30.363 13.6036 30.5055 13.8367Z" fill="#2B70DB"/>
<path d="M20.4604 14.0662C21.8729 14.0662 23.0179 12.9212 23.0179 11.5087C23.0179 10.0962 21.8729 8.95117 20.4604 8.95117C19.0479 8.95117 17.9028 10.0962 17.9028 11.5087C17.9028 12.9212 19.0479 14.0662 20.4604 14.0662Z" fill="#2B70DB"/>
<path d="M28.1332 24.937C28.0319 24.9369 27.9321 24.9128 27.842 24.8666C27.7519 24.8204 27.674 24.7535 27.6148 24.6713C27.5557 24.5891 27.5168 24.4941 27.5016 24.394C27.4863 24.2939 27.495 24.1916 27.527 24.0955C27.9581 22.8116 28.6807 21.6451 29.6383 20.6874C30.5959 19.7297 31.7623 19.0069 33.0462 18.5757C33.2071 18.5221 33.3827 18.5347 33.5344 18.6106C33.6861 18.6865 33.8014 18.8195 33.855 18.9805C33.9086 19.1414 33.896 19.317 33.8201 19.4687C33.7442 19.6204 33.6112 19.7357 33.4503 19.7893C32.3546 20.1573 31.3591 20.7741 30.5417 21.5913C29.7244 22.4085 29.1074 23.404 28.7393 24.4996C28.697 24.627 28.6157 24.7379 28.5069 24.8165C28.3981 24.8951 28.2674 24.9368 28.1332 24.937ZM12.7879 24.937C12.6538 24.9369 12.5231 24.8946 12.4143 24.8161C12.3055 24.7376 12.2242 24.6269 12.1818 24.4996C11.8136 23.404 11.1967 22.4085 10.3794 21.5913C9.56202 20.7741 8.56648 20.1573 7.47081 19.7893C7.39113 19.7627 7.31745 19.7208 7.25399 19.6658C7.19052 19.6108 7.13852 19.5438 7.10093 19.4687C7.06335 19.3936 7.04093 19.3118 7.03495 19.228C7.02897 19.1443 7.03955 19.0601 7.06608 18.9805C7.09261 18.9008 7.13458 18.8271 7.18959 18.7636C7.24459 18.7002 7.31156 18.6482 7.38667 18.6106C7.53835 18.5347 7.71397 18.5221 7.8749 18.5757C9.15873 19.0069 10.3252 19.7297 11.2828 20.6874C12.2404 21.6451 12.963 22.8116 13.3941 24.0955C13.4261 24.1916 13.4348 24.2939 13.4195 24.394C13.4042 24.4941 13.3654 24.5891 13.3062 24.6713C13.2471 24.7535 13.1692 24.8204 13.0791 24.8666C12.989 24.9128 12.8892 24.9369 12.7879 24.937Z" fill="#F8BE31"/>
<path d="M5.11507 16.6239C5.82132 16.6239 6.39384 16.0514 6.39384 15.3452C6.39384 14.6389 5.82132 14.0664 5.11507 14.0664C4.40883 14.0664 3.8363 14.6389 3.8363 15.3452C3.8363 16.0514 4.40883 16.6239 5.11507 16.6239Z" fill="#D61C5F"/>
<path d="M35.8055 16.6239C36.5117 16.6239 37.0843 16.0514 37.0843 15.3452C37.0843 14.6389 36.5117 14.0664 35.8055 14.0664C35.0993 14.0664 34.5267 14.6389 34.5267 15.3452C34.5267 16.0514 35.0993 16.6239 35.8055 16.6239Z" fill="#D61C5F"/>
<path d="M7.67253 7.24512L8.17381 8.2611L9.29465 8.42414L8.48391 9.21442L8.67509 10.3314L7.67253 9.80393L6.66998 10.3314L6.86115 9.21442L6.05042 8.42414L7.17126 8.2611L7.67253 7.24512ZM33.2479 7.24512L33.7492 8.2611L34.87 8.42414L34.0593 9.21442L34.2505 10.3314L33.2479 9.80393L32.2453 10.3314L32.4365 9.21442L31.6258 8.42414L32.7466 8.2611L33.2479 7.24512Z" fill="#2189E2"/>
<path d="M26.8543 10.8685C26.6847 10.8685 26.5221 10.8011 26.4022 10.6812C26.2823 10.5613 26.2149 10.3987 26.2149 10.2291C26.2125 9.33392 26.3876 8.44713 26.7301 7.62006C27.0726 6.79299 27.5758 6.04205 28.2104 5.41071L28.9598 4.66199C29.0188 4.60093 29.0893 4.55222 29.1673 4.51871C29.2453 4.4852 29.3292 4.46756 29.4141 4.46682C29.499 4.46608 29.5832 4.48226 29.6618 4.51441C29.7404 4.54656 29.8118 4.59403 29.8718 4.65407C29.9318 4.7141 29.9793 4.78549 30.0114 4.86407C30.0436 4.94265 30.0598 5.02684 30.059 5.11174C30.0583 5.19663 30.0407 5.28053 30.0071 5.35854C29.9736 5.43655 29.9249 5.5071 29.8639 5.56608L29.1145 6.3148C28.599 6.82772 28.1903 7.43777 27.9121 8.10965C27.6339 8.78153 27.4917 9.50191 27.4937 10.2291C27.4937 10.3987 27.4263 10.5613 27.3064 10.6812C27.1865 10.8011 27.0239 10.8685 26.8543 10.8685ZM14.0666 10.8685C13.897 10.8685 13.7344 10.8011 13.6145 10.6812C13.4946 10.5613 13.4272 10.3987 13.4272 10.2291C13.4292 9.50191 13.287 8.78153 13.0088 8.10965C12.7305 7.43777 12.3219 6.82772 11.8064 6.3148L11.057 5.56608C10.9959 5.5071 10.9472 5.43655 10.9137 5.35854C10.8802 5.28053 10.8626 5.19663 10.8618 5.11174C10.8611 5.02684 10.8773 4.94265 10.9094 4.86407C10.9416 4.78549 10.9891 4.7141 11.0491 4.65407C11.1091 4.59403 11.1805 4.54656 11.2591 4.51441C11.3377 4.48226 11.4219 4.46608 11.5068 4.46682C11.5917 4.46756 11.6756 4.4852 11.7536 4.51871C11.8316 4.55222 11.9021 4.60093 11.9611 4.66199L12.7105 5.41071C13.3451 6.04205 13.8483 6.79299 14.1908 7.62006C14.5333 8.44713 14.7084 9.33392 14.706 10.2291C14.706 10.3987 14.6386 10.5613 14.5187 10.6812C14.3988 10.8011 14.2362 10.8685 14.0666 10.8685Z" fill="#D61C5F"/>
<path d="M20.4603 7.03331C20.2907 7.03331 20.1281 6.96594 20.0082 6.84604C19.8883 6.72613 19.8209 6.5635 19.8209 6.39392V3.197C19.8209 3.02743 19.8883 2.8648 20.0082 2.74489C20.1281 2.62498 20.2907 2.55762 20.4603 2.55762C20.6299 2.55762 20.7925 2.62498 20.9124 2.74489C21.0323 2.8648 21.0997 3.02743 21.0997 3.197V6.39392C21.0997 6.5635 21.0323 6.72613 20.9124 6.84604C20.7925 6.96594 20.6299 7.03331 20.4603 7.03331Z" fill="#F8BE31"/>
</svg>
