<svg width="41" height="41" viewBox="0 0 41 41" fill="none" xmlns="http://www.w3.org/2000/svg">
<path fill-rule="evenodd" clip-rule="evenodd" d="M8.297 2.51172H32.649V21.8858H8.297V2.51172Z" fill="#DCE7F9"/>
<path fill-rule="evenodd" clip-rule="evenodd" d="M17.0984 20.8831L12.546 19.2568L8.05884 27.0288L11.0599 30.7765L23.3723 38.1268C25.0534 39.1056 26.5337 36.5647 24.853 35.585L25.5207 35.9739C27.2019 36.9528 28.6821 34.4116 27.0013 33.4321L27.8388 33.9198C29.5203 34.8988 31.0004 32.3568 29.3189 31.3777L28.6426 30.984C30.3243 31.9609 31.8021 29.4198 30.1215 28.4412L17.0984 20.8831Z" fill="#FFF1C2"/>
<path fill-rule="evenodd" clip-rule="evenodd" d="M32.887 27.0288L28.3998 19.2568C25.9143 20.0748 23.6882 19.9046 21.69 19.4647C19.5625 18.9964 18.6452 19.4409 17.0978 20.8831C16.5306 21.4117 15.8787 22.0745 15.0516 22.8754L14.8822 26.4416C14.8264 27.6168 15.7916 27.7957 16.9968 27.1451C17.81 26.7061 18.2575 25.3446 18.7569 24.4043C19.915 23.8703 21.051 23.1928 22.2077 23.8607L30.121 28.4412L32.887 27.0288ZM14.6047 30.8489L15.1897 30.0173C16.3092 28.4259 18.715 30.1182 17.5956 31.7097L17.2833 32.1536C18.403 30.5634 20.8079 32.2556 19.6887 33.8467L18.8388 35.055C19.9583 33.4637 22.364 35.1562 21.2447 36.7475L20.508 37.7949C19.3886 39.3863 16.9826 37.6941 18.102 36.1026L17.6354 36.7658C16.5161 38.3572 14.1102 36.6651 15.2292 35.0737L15.1044 35.2513C13.9849 36.8427 11.579 35.1504 12.6985 33.5589L13.1343 32.9393C12.0147 34.5303 9.60915 32.8381 10.7285 31.2466L12.1978 29.1577C13.317 27.5667 15.7221 29.2577 14.6047 30.8489Z" fill="#FAE3B1"/>
<path fill-rule="evenodd" clip-rule="evenodd" d="M31.5973 15.721L28.768 17.3545C28.1629 17.7039 27.9536 18.4848 28.303 19.09L33.2686 27.6906C33.6179 28.2958 34.3989 28.505 35.0041 28.1557L37.8334 26.5222C38.4385 26.1729 38.6478 25.3919 38.2984 24.7867L33.3328 16.1861C32.9835 15.5809 32.2025 15.3716 31.5973 15.721Z" fill="#2B70DB"/>
<path fill-rule="evenodd" clip-rule="evenodd" d="M9.34869 15.721L12.178 17.3545C12.7831 17.7039 12.9924 18.4848 12.643 19.09L7.67743 27.6907C7.32809 28.2958 6.54712 28.505 5.94194 28.1557L3.11262 26.5221C2.50752 26.1728 2.29823 25.3918 2.64764 24.7866L7.61321 16.186C7.96262 15.5809 8.74351 15.3716 9.34869 15.721Z" fill="#07B64A"/>
<path fill-rule="evenodd" clip-rule="evenodd" d="M37.7448 25.1058L32.779 16.506C32.6047 16.2046 32.2182 16.1015 31.9173 16.2747L29.0879 17.9081C29.0162 17.9496 28.9534 18.0049 28.9032 18.0708C28.853 18.1366 28.8162 18.2118 28.7952 18.2919C28.7521 18.455 28.7734 18.6255 28.8566 18.7702L33.8224 27.3708C33.9064 27.515 34.0442 27.6201 34.2055 27.6628C34.3696 27.7066 34.5391 27.6853 34.6838 27.6014L37.5135 25.9684C37.8149 25.7936 37.9179 25.4072 37.7448 25.1058ZM31.9968 26.7662L30.1404 27.7141L22.5285 23.3079C21.1983 22.5403 19.9435 23.1362 18.8359 23.6617C18.7208 23.7168 18.6053 23.7711 18.4895 23.8247C18.3623 23.8831 18.2577 23.9818 18.1919 24.1054C18.0656 24.3438 17.9431 24.6061 17.8239 24.8588C17.4978 25.5578 17.1264 26.3494 16.6931 26.5832C16.1005 26.903 15.7077 26.9142 15.5998 26.8463C15.5538 26.8175 15.511 26.6901 15.5215 26.4734L15.6789 23.159C15.9469 22.8985 16.198 22.6505 16.4252 22.4274C18.7486 20.1385 19.3003 19.5954 21.5525 20.0905C23.0945 20.4305 25.413 20.7768 28.1003 20.0185L31.9968 26.7662ZM29.7997 28.9951C30.4732 29.388 30.1595 30.006 30.0902 30.1251C30.0197 30.2451 29.6381 30.8234 28.9639 30.4325L26.3785 28.9265C26.0731 28.7489 25.6811 28.8519 25.5034 29.1574C25.3249 29.4628 25.4291 29.8542 25.7346 30.0326L28.3204 31.5374V31.5385H28.3219L28.997 31.9317C29.2784 32.0959 29.4208 32.3196 29.419 32.5973C29.4183 32.9156 29.2241 33.2492 28.9483 33.4073C28.7073 33.5448 28.4419 33.5321 28.1604 33.3683L27.3246 32.8811C27.3246 32.8811 27.3238 32.8811 27.3231 32.8803L24.711 31.3601C24.4063 31.1817 24.0143 31.2855 23.837 31.5902C23.6582 31.8956 23.7624 32.2877 24.0671 32.4654L26.6784 33.9856L26.6791 33.9864H26.6798C27.3526 34.3799 27.0381 34.9965 26.9684 35.1164C26.899 35.2364 26.5167 35.8147 25.8425 35.4219L25.1761 35.0339C25.1761 35.0339 25.1754 35.0339 25.1746 35.0332L23.0442 33.7931C22.7395 33.6154 22.3475 33.7185 22.1702 34.024C21.9918 34.3298 22.0948 34.7214 22.4004 34.8991L24.5311 36.1393H24.5318C25.2042 36.5329 24.8901 37.1494 24.8204 37.2694C24.7506 37.3897 24.3676 37.9677 23.6941 37.5752L22.0413 36.6131C22.4172 35.6468 21.9806 34.6998 21.2493 34.1859C21.0052 34.0137 20.7294 33.8913 20.4379 33.8257C20.8952 32.8212 20.4529 31.8197 19.694 31.2857C19.354 31.0458 18.947 30.8977 18.5302 30.8771C18.5377 30.1725 18.1528 29.5368 17.6011 29.1482C16.9429 28.6849 16.0336 28.565 15.2881 29.0433C15.1236 28.7435 14.8875 28.4841 14.6083 28.2885C13.7504 27.6854 12.4674 27.6644 11.6747 28.7914L11.027 29.7127L8.83183 26.9717L12.8329 20.0405L15.9104 21.1394C15.7863 21.2609 15.6592 21.3864 15.5273 21.5168C15.2387 21.8006 14.9396 22.0951 14.6068 22.4171C14.4899 22.5304 14.4207 22.684 14.4134 22.8466L14.2436 26.4129C14.1998 27.3356 14.6476 27.7588 14.9186 27.9293C15.5062 28.2996 16.3526 28.2213 17.3012 27.7093C18.1067 27.2748 18.5729 26.2794 18.9841 25.402C19.0627 25.2312 19.1434 25.0614 19.2262 24.8926C19.2798 24.8675 19.3326 24.8428 19.3855 24.8173C20.4732 24.3016 21.1766 24.0047 21.8877 24.4159L29.7997 28.9951ZM20.514 35.2326C20.4 35.1524 19.8115 34.787 19.3629 35.4246L18.6253 36.4721C18.4383 36.7386 18.4023 37.0014 18.5193 37.2528C18.6535 37.5422 18.9687 37.7637 19.2862 37.7925C19.5628 37.8172 19.7982 37.6947 19.9852 37.4286L20.7217 36.3809C21.1702 35.7427 20.6271 35.3125 20.514 35.2326ZM17.5777 35.7379C17.5777 35.7372 17.5784 35.7364 17.5792 35.7357L18.3157 34.6889L19.1662 33.4805C19.6149 32.8422 19.071 32.412 18.9582 32.3317C18.8446 32.2519 18.2561 31.8864 17.8072 32.5221V32.5228L15.7529 35.4437C15.305 36.0813 15.8481 36.5115 15.9616 36.5914C16.0752 36.6712 16.6637 37.0377 17.1122 36.3994L17.5777 35.7379ZM14.7067 34.7072L16.7603 31.7871L17.0725 31.3433C17.5212 30.705 16.978 30.2748 16.8645 30.1949C16.7509 30.1147 16.1621 29.7485 15.7135 30.3868L15.1288 31.2178L15.128 31.2185L13.6581 33.3091L13.2221 33.9279C12.7735 34.5662 13.3166 34.9972 13.4301 35.0767C13.5437 35.1565 14.1325 35.5227 14.5812 34.8844L14.7067 34.7072ZM12.6112 32.5726L14.0819 30.482C14.5291 29.8444 13.986 29.4141 13.8724 29.335C13.7588 29.2552 13.1704 28.8898 12.7218 29.527L11.2525 31.6158C10.8039 32.2541 11.3466 32.6844 11.4602 32.7646C11.5741 32.8444 12.1618 33.2099 12.6105 32.5734L12.6112 32.5726ZM7.12329 27.3707L12.0891 18.7701C12.1304 18.6984 12.157 18.6192 12.1676 18.5371C12.1781 18.455 12.1724 18.3717 12.1506 18.2918C12.1295 18.2117 12.0928 18.1366 12.0426 18.0707C11.9924 18.0048 11.9296 17.9495 11.8579 17.908L9.02809 16.2746C8.93299 16.2191 8.82485 16.1899 8.71474 16.1899C8.60371 16.1899 8.49461 16.219 8.39842 16.2745C8.30223 16.33 8.22233 16.4098 8.16674 16.5059L3.20214 25.1069C3.02787 25.4072 3.13168 25.7936 3.43231 25.9682L6.26203 27.6013C6.40671 27.6853 6.5761 27.7066 6.74029 27.6627C6.90328 27.6189 7.04012 27.5154 7.12329 27.3707ZM8.937 3.15169H32.0096V14.9243C31.7516 14.9543 31.5026 15.0367 31.2776 15.1664L28.4482 16.8001C28.0074 17.0546 27.6914 17.4665 27.5595 17.9609C27.4814 18.2501 27.4726 18.5537 27.534 18.847C25.7522 19.3155 23.9621 19.3106 21.8276 18.8414C19.5514 18.3399 18.448 18.8151 16.9514 20.1521L13.4039 18.8853C13.4739 18.5804 13.4679 18.263 13.3863 17.961C13.2544 17.4666 12.9384 17.0547 12.4976 16.8002L9.66822 15.1664C9.44347 15.0368 9.19466 14.9544 8.937 14.9243V3.15169ZM38.1534 27.0758L35.3236 28.7095C35.035 28.8766 34.7076 28.9647 34.3742 28.9647C34.2081 28.9647 34.0402 28.943 33.8745 28.8992C33.3809 28.7665 32.9694 28.4513 32.7142 28.0105L32.6373 27.8763L31.2059 28.6072C31.6335 29.2855 31.5721 30.1218 31.1961 30.769C31.0064 31.0936 30.7363 31.3736 30.4132 31.5669C30.6002 31.8743 30.7003 32.227 30.6984 32.6021C30.6961 33.3791 30.2579 34.131 29.5837 34.5174C29.2086 34.7326 28.7937 34.8157 28.3787 34.7678C28.3578 35.1164 28.2498 35.4597 28.0748 35.761C27.7025 36.3986 27.0196 36.8592 26.2334 36.8394C26.2255 37.2157 26.1149 37.5886 25.9256 37.9139C25.5632 38.5361 24.9035 38.993 24.1397 38.993C23.7919 38.993 23.423 38.8977 23.0505 38.6811L21.3605 37.6973L21.0318 38.1643C20.6198 38.7497 20.0161 39.0754 19.3545 39.0754C19.2938 39.0754 19.2331 39.0721 19.1716 39.0665C18.4134 38.9986 17.7144 38.517 17.3786 37.8341C16.6661 38.203 15.8373 38.0684 15.2257 37.6381C14.8295 37.36 14.5203 36.9552 14.3794 36.4889C13.7916 36.6175 13.1755 36.4627 12.6935 36.1235C12.0938 35.7011 11.6913 34.9867 11.7752 34.2105C11.3978 34.1704 11.0331 34.0287 10.7235 33.8113C9.86632 33.2075 9.41285 32.007 10.2052 30.8799L10.2599 30.8024L8.13891 28.1536C7.88219 28.519 7.50926 28.7814 7.07107 28.8991C6.90576 28.9429 6.73749 28.9647 6.57106 28.9647C6.2378 28.9644 5.91048 28.8764 5.62206 28.7095L2.79226 27.0757C1.88077 26.5495 1.56622 25.3786 2.09327 24.4667L7.05907 15.8661C7.20589 15.6103 7.41078 15.3925 7.65722 15.2304V2.51188C7.65722 2.15919 7.94353 1.87207 8.29702 1.87207H32.6492C33.0019 1.87207 33.289 2.15919 33.289 2.51188V15.2305C33.5351 15.393 33.7399 15.6106 33.8871 15.8662L38.8521 24.4668C39.3793 25.3787 39.066 26.5495 38.1534 27.0758ZM12.7769 15.7264C12.8362 15.7858 12.9068 15.8329 12.9844 15.865C13.062 15.8972 13.1452 15.9136 13.2292 15.9134C13.3132 15.9135 13.3963 15.8971 13.4739 15.865C13.5515 15.8329 13.622 15.7858 13.6813 15.7264L15.6422 13.7642C15.8926 13.515 15.8926 13.1095 15.6422 12.8598C15.393 12.6106 14.9882 12.6106 14.7378 12.8598L13.2292 14.3692L12.7008 13.8403C12.4512 13.5911 12.046 13.5911 11.7964 13.8403C11.7369 13.8997 11.6896 13.9703 11.6574 14.048C11.6252 14.1257 11.6086 14.209 11.6086 14.2931C11.6086 14.3772 11.6252 14.4605 11.6574 14.5382C11.6896 14.6159 11.7369 14.6864 11.7964 14.7458L12.7769 15.7264ZM18.6909 14.9329H28.6978C29.0512 14.9329 29.3376 14.6466 29.3376 14.2931C29.3376 14.1234 29.2702 13.9607 29.1502 13.8407C29.0302 13.7207 28.8675 13.6533 28.6978 13.6533H18.6909C18.3375 13.6533 18.0511 13.9396 18.0511 14.2931C18.0511 14.4628 18.1185 14.6255 18.2385 14.7455C18.3585 14.8655 18.5212 14.9329 18.6909 14.9329ZM12.7769 8.83296C12.836 8.89278 12.9065 8.94022 12.9841 8.97253C13.0618 9.00484 13.1451 9.02137 13.2292 9.02115C13.3133 9.02132 13.3966 9.00477 13.4742 8.97246C13.5518 8.94016 13.6222 8.89274 13.6813 8.83296L15.6422 6.87203C15.8926 6.62282 15.8926 6.21726 15.6422 5.96765C15.393 5.71725 14.9882 5.71725 14.7378 5.96765L13.2292 7.47585L12.7008 6.94808C12.6415 6.88855 12.571 6.84131 12.4934 6.80908C12.4158 6.77684 12.3326 6.76025 12.2486 6.76025C12.1645 6.76025 12.0813 6.77684 12.0037 6.80908C11.9262 6.84131 11.8557 6.88855 11.7964 6.94808C11.546 7.19769 11.546 7.60325 11.7964 7.85253L12.7769 8.83296ZM18.0511 7.46865C18.0511 7.63834 18.1185 7.80107 18.2385 7.92106C18.3585 8.04105 18.5212 8.10846 18.6909 8.10846H28.6978C29.0512 8.10846 29.3376 7.82214 29.3376 7.46865C29.3376 7.29896 29.2702 7.13622 29.1502 7.01623C29.0302 6.89625 28.8675 6.82884 28.6978 6.82884H18.6909C18.5212 6.82884 18.3585 6.89625 18.2385 7.01623C18.1185 7.13622 18.0511 7.29896 18.0511 7.46865Z" fill="#0E2750"/>
</svg>
