<svg width="40" height="40" viewBox="0 0 40 40" fill="none" xmlns="http://www.w3.org/2000/svg">
<circle cx="20" cy="20" r="19.3617" stroke="white" stroke-width="1.2766"/>
<path d="M20 3.61719C29.0479 3.61727 36.3827 10.9521 36.3828 20C36.3828 29.048 29.048 36.3827 20 36.3828C10.9519 36.3828 3.61719 29.0481 3.61719 20C3.61728 10.952 10.952 3.61719 20 3.61719ZM20.4902 11.2705C17.8324 11.2705 15.8349 11.7584 14.498 12.7334C13.1612 13.6928 12.4932 15.0144 12.4932 16.6973C12.4932 18.3798 12.9803 19.5591 13.9551 20.2354C14.9301 20.9116 16.3773 21.3213 18.2959 21.4629V22.0283C17.1636 22.0283 16.1021 21.9425 15.1113 21.7695C14.1362 21.5965 13.5067 21.4548 13.2236 21.3447C12.9407 21.2347 12.7284 21.1479 12.5869 21.085V26.959L13.2236 27.2422C13.6325 27.4152 14.4348 27.5965 15.6299 27.7852C16.8252 27.9582 18.2018 28.0449 19.7588 28.0449C22.4794 28.0449 24.4924 27.6042 25.7979 26.7236C27.1032 25.8429 27.7568 24.6002 27.7568 22.9961C27.7568 21.6594 27.3083 20.6606 26.4121 20C25.5156 19.3394 24.0446 18.9307 22 18.7734V18.1602C24.2175 18.1602 25.9634 18.4504 27.2373 19.0322V12.2852L26.5293 12.0264C26.0417 11.8534 25.2319 11.6875 24.0996 11.5303C22.983 11.3573 21.7798 11.2705 20.4902 11.2705Z" fill="white"/>
</svg>
