<svg width="32" height="32" viewBox="0 0 32 32" fill="none" xmlns="http://www.w3.org/2000/svg">
<circle cx="15.5324" cy="15.5349" r="12.7234" fill="#2B70DB"/>
<circle cx="15.5325" cy="15.5325" r="15.0367" stroke="#2B70DB" stroke-width="0.991434"/>
<path d="M15.9132 9.32739C16.9147 9.32739 17.8492 9.39457 18.7164 9.52893C19.5958 9.65107 20.2249 9.77932 20.6035 9.91368L21.1532 10.1152V15.3552C20.1638 14.9033 18.808 14.6773 17.0857 14.6773V15.1537C18.6736 15.2758 19.8157 15.5934 20.5119 16.1064C21.2081 16.6194 21.5562 17.395 21.5562 18.4333C21.5562 19.6791 21.0493 20.6441 20.0355 21.3281C19.0217 22.0121 17.4583 22.3541 15.3452 22.3541C14.136 22.3541 13.0672 22.2869 12.1389 22.1526C11.2106 22.006 10.5877 21.8655 10.2701 21.7312L9.77539 21.5113V16.9492C9.88532 16.9981 10.0502 17.0653 10.2701 17.1508C10.4899 17.2363 10.9785 17.3462 11.7358 17.4805C12.5053 17.6149 13.3298 17.6821 14.2092 17.6821V17.2424C12.7191 17.1324 11.5953 16.8149 10.8381 16.2896C10.0808 15.7644 9.70211 14.8483 9.70211 13.5414C9.70211 12.2344 10.2212 11.2084 11.2594 10.4633C12.2977 9.70604 13.8489 9.32739 15.9132 9.32739Z" fill="white"/>
</svg>
