<svg width="41" height="41" viewBox="0 0 41 41" fill="none" xmlns="http://www.w3.org/2000/svg">
<path d="M28.6887 13.9648C28.6719 13.9645 28.6551 13.963 28.6385 13.9601C27.9016 14.2874 26.1632 14.0579 25.8903 14.0414C25.7496 14.0324 25.5906 13.9168 25.6063 13.7574C25.6167 13.6858 25.6207 13.6138 25.6192 13.5412C25.6214 13.3976 25.7481 13.245 25.9028 13.2576C26.1968 13.2812 26.4944 13.3259 26.7891 13.3041C26.8045 13.2535 26.8345 13.2085 26.8754 13.1748C26.9169 12.5389 26.9004 11.904 26.8643 11.2677C26.8403 10.8441 26.7894 10.418 26.769 9.99226C26.6373 10.1226 26.4976 10.2443 26.3705 10.3836C26.2738 10.49 26.065 10.4971 25.9694 10.3836C25.9259 10.3324 25.8806 10.2829 25.8334 10.235C25.6851 10.1745 25.6038 9.9611 25.6959 9.8236C25.9458 9.45013 26.3046 9.20019 26.6355 8.90979C26.6548 8.82421 26.7164 8.75081 26.8324 8.72646L26.8958 8.71357C26.9124 8.71038 26.9293 8.70858 26.9463 8.70819C27.0319 8.69652 27.1188 8.6987 27.2037 8.71464C27.2511 8.68145 27.3078 8.66415 27.3656 8.66523C27.6195 8.66523 27.6964 8.93844 27.598 9.10566C27.6857 9.37135 27.6818 9.72656 27.6993 10.0399C27.728 10.5505 27.6889 11.0529 27.6578 11.5621C27.6273 12.0573 27.652 12.5521 27.6599 13.0477C27.701 13.0635 27.7373 13.0895 27.7656 13.1232C27.7938 13.1569 27.813 13.1972 27.8214 13.2404C27.8322 13.2429 27.8415 13.245 27.8497 13.2461C27.9492 13.2576 28.0524 13.2515 28.1523 13.2475C28.3274 13.2411 28.501 13.2185 28.6758 13.2067C28.7982 13.1985 28.9193 13.3012 28.9494 13.4148C28.9712 13.4957 28.9733 13.568 28.9587 13.6328C28.9819 13.7886 28.8921 13.9648 28.6887 13.9648ZM24.6041 13.549C24.5839 13.6054 24.5452 13.6531 24.4942 13.6844C24.3362 13.7802 24.1679 13.8578 23.9925 13.9157C23.5166 14.1531 22.9082 14.1853 22.3915 14.0203C22.2411 13.9933 22.093 13.9545 21.9486 13.9042C21.5937 13.7796 21.361 13.5025 21.3273 13.1244C21.3008 12.8214 21.3975 12.4261 21.7187 12.3112C22.1173 12.1686 22.471 12.6499 22.7836 12.8118C23.2352 13.0452 23.8185 12.8175 24.0007 12.343C24.2328 11.74 23.9159 10.8968 23.2062 10.861C23.1749 10.8596 23.1441 10.8538 23.1145 10.8438C23.0164 10.8341 22.9297 10.7718 22.9072 10.64C22.8979 10.5878 22.8932 10.5348 22.8932 10.4817V10.4692C22.8932 10.4603 22.8932 10.4513 22.8939 10.4427C22.8968 10.2988 22.9283 10.1631 22.9809 10.0148C23.0135 9.92458 23.0991 9.77383 23.1381 9.64277C23.1242 9.61878 23.0737 9.62953 22.9691 9.63239C22.8345 9.63597 22.7016 9.63812 22.5666 9.63633C22.1054 9.6306 21.5185 9.71761 21.5995 9.06376C21.6068 8.998 21.6362 8.93666 21.6829 8.88974C21.7241 8.80917 21.8036 8.75367 21.9214 8.76728C22.287 8.80917 22.6375 8.74687 23.0017 8.72144C23.3515 8.69709 23.7082 8.72789 24.0584 8.74185C24.2893 8.75081 24.3907 8.9721 24.3033 9.16868C24.1572 9.49775 23.9123 9.77347 23.7558 10.095C25.0008 10.5595 25.6167 12.6341 24.6041 13.549ZM33.1589 12.5708L33.1521 9.57689L33.1485 7.9147C33.2015 7.81981 33.1571 7.66906 33.0157 7.67013L20.2484 7.78221L16.6577 7.81336C16.634 7.81278 16.6106 7.81796 16.5894 7.82843C16.5682 7.83891 16.5498 7.85438 16.5359 7.87352C16.5012 7.88006 16.4698 7.89844 16.447 7.92554C16.4243 7.95263 16.4117 7.98676 16.4113 8.02212C16.3357 9.9278 16.4679 11.8335 16.5778 13.7352L16.6702 15.3344C16.6715 15.374 16.6881 15.4116 16.7164 15.4393C16.6885 15.5192 16.7146 15.6155 16.8199 15.6398C17.3126 15.7534 17.8393 15.7029 18.3406 15.6975L19.9129 15.6803L23.025 15.6459L29.2888 15.5768L32.7997 15.5381C32.8127 15.5381 32.8255 15.5366 32.8381 15.5335C32.9061 15.5381 32.9777 15.5066 33.0074 15.4257C33.1657 14.9914 33.1632 14.5237 33.1621 14.0675L33.1589 12.5708ZM33.1754 6.89597C33.1834 6.87643 33.1877 6.85552 33.1879 6.83438C33.1986 5.70035 33.1707 4.56668 33.1038 3.43444C33.0937 3.26328 32.8685 3.235 32.8023 3.35101C30.7336 3.28226 28.6654 3.211 26.5968 3.14512C25.5602 3.11217 24.5232 3.08496 23.4858 3.08496C22.4431 3.08532 21.4007 3.12363 20.3584 3.13438C19.1749 3.14655 17.9911 3.13223 16.8084 3.09212C16.7745 3.08954 16.7408 3.09932 16.7136 3.11967C16.6863 3.14001 16.6673 3.16953 16.6602 3.20277C16.6396 3.21166 16.6214 3.22512 16.6068 3.24212C16.5922 3.25912 16.5817 3.27921 16.576 3.30088C16.5608 3.31527 16.5488 3.33275 16.5409 3.35214C16.533 3.37153 16.5294 3.39239 16.5302 3.41332L16.5492 7.00089C16.5497 7.0431 16.5667 7.08344 16.5965 7.11333C16.6263 7.14321 16.6666 7.1603 16.7089 7.16095C18.838 7.15343 20.9671 7.15128 23.0962 7.14841L29.4456 7.14018L33.04 7.13552C33.1782 7.13516 33.2234 6.9905 33.1754 6.89597Z" fill="#FF9900"/>
<path d="M28.6761 6.32503C28.5059 6.34179 28.3347 6.34514 28.164 6.33506L28.1604 5.85058C28.2532 5.84306 28.3463 5.84377 28.4387 5.85344C28.4703 5.85379 28.5014 5.84473 28.5279 5.82741C28.5544 5.8101 28.5752 5.7853 28.5877 5.75616C28.6001 5.72702 28.6036 5.69485 28.5977 5.66373C28.5918 5.6326 28.5769 5.60392 28.5547 5.5813C28.5237 5.55285 28.4839 5.53602 28.4419 5.53368C28.3476 5.52431 28.2527 5.52371 28.1583 5.53189L28.1554 5.11939C28.3323 5.1287 28.5096 5.13371 28.6872 5.13013C28.7706 5.1287 28.8515 5.05994 28.8487 4.97186C28.8454 4.88735 28.7799 4.80857 28.69 4.81037C28.5575 4.81287 28.4251 4.8118 28.2926 4.80714C28.1565 4.80249 27.8328 4.72586 27.8342 4.95216L27.845 6.48115C27.8457 6.57353 27.9159 6.63333 28.0032 6.64264C28.2258 6.66586 28.4501 6.66669 28.6728 6.64515C28.7588 6.63656 28.8336 6.57962 28.8343 6.48652C28.8351 6.40739 28.7627 6.31679 28.6761 6.32503ZM27.2731 6.08798C27.2706 6.1399 27.2685 6.20794 27.2355 6.25127C27.2015 6.29603 27.1338 6.31142 27.0812 6.31751C26.9516 6.33291 26.8155 6.32682 26.6816 6.32073L26.6984 5.72274C26.8459 5.70484 27.0164 5.68192 27.1496 5.76428C27.2595 5.83196 27.2781 5.9691 27.2731 6.08798ZM32.7227 4.97938C32.7224 4.95822 32.7139 4.93802 32.6989 4.9231C32.6839 4.90817 32.6636 4.89971 32.6425 4.89953C32.6214 4.89998 32.6014 4.90854 32.5865 4.92342C32.5716 4.9383 32.5631 4.95834 32.5626 4.97938C32.5562 5.1133 32.5601 5.24758 32.5752 5.38078C32.5798 5.42232 32.6088 5.46278 32.6554 5.46099C32.6948 5.4592 32.7402 5.42518 32.7352 5.38078C32.7201 5.24754 32.7159 5.1133 32.7227 4.97938ZM32.7159 4.00254C32.7105 3.88832 32.7313 3.72826 32.5866 3.70248C32.4924 3.68565 32.3861 3.69567 32.2905 3.69281L32.0166 3.68529L31.449 3.66918C30.6759 3.64733 29.9021 3.62406 29.1297 3.67025C29.0277 3.67634 29.027 3.8364 29.1297 3.82995C29.8366 3.7877 30.5445 3.80381 31.2517 3.82351L32.2905 3.85287L32.4079 3.85609C32.433 3.85681 32.5075 3.84786 32.5458 3.8543C32.5361 3.86182 32.5508 3.90407 32.5519 3.92413L32.5576 4.04158C32.5651 4.22455 32.5655 4.40753 32.5601 4.59051C32.5573 4.69363 32.7173 4.69327 32.7202 4.59051C32.7256 4.39464 32.7248 4.19841 32.7159 4.00254ZM30.233 8.00978C30.2183 7.99617 30.1972 7.98436 30.1764 7.9865L29.9429 8.00978C29.9219 8.01042 29.9019 8.01884 29.8867 8.03341C29.8718 8.04846 29.8633 8.06877 29.8631 8.08999C29.8634 8.11119 29.8718 8.13147 29.8867 8.14656C29.9014 8.15981 29.9222 8.17199 29.9429 8.16984L30.1764 8.14621C30.1975 8.14552 30.2175 8.13725 30.233 8.12293C30.2478 8.10782 30.2563 8.08755 30.2566 8.06636C30.2564 8.04513 30.2479 8.02483 30.233 8.00978ZM32.6951 8.02518C32.6923 7.98292 32.6607 7.94425 32.6153 7.94533L30.6054 7.98471C30.5026 7.9865 30.5023 8.14656 30.6054 8.14477L32.5394 8.10682C32.5605 8.45308 32.5734 8.7997 32.5755 9.14667C32.5762 9.24944 32.7363 9.2498 32.7356 9.14667C32.733 8.77253 32.7195 8.39853 32.6951 8.02518ZM31.2736 15.0037C31.1282 15.004 30.983 15.012 30.8385 15.0277C30.797 15.0324 30.7565 15.0614 30.7583 15.1079C30.7601 15.1473 30.7937 15.1924 30.8385 15.1878C30.983 15.1721 31.1282 15.1641 31.2736 15.1638C31.3151 15.1638 31.3552 15.1269 31.3534 15.0836C31.353 15.0625 31.3445 15.0424 31.3296 15.0275C31.3147 15.0126 31.2946 15.0041 31.2736 15.0037ZM32.7914 10.758C32.795 10.6552 32.635 10.6552 32.6317 10.758L32.4907 14.998C32.2337 15.0258 31.9748 15.0314 31.7169 15.0148C31.6735 15.012 31.637 15.0535 31.637 15.095C31.637 15.1405 31.6735 15.172 31.7169 15.1749C31.8755 15.1853 32.0334 15.1992 32.1927 15.1971C32.3113 15.1957 32.5694 15.2103 32.6393 15.085C32.6998 14.9769 32.6593 14.733 32.6636 14.6098L32.6819 14.0563L32.7188 12.9494L32.7914 10.758ZM28.1422 8.77392C28.1339 8.67222 27.9739 8.67115 27.9821 8.77392C28.0916 10.1378 28.1125 11.5073 28.0448 12.8739C28.0398 12.9767 28.1998 12.9763 28.2048 12.8739C28.2725 11.5075 28.2514 10.1378 28.1422 8.77392ZM29.7514 5.10256C29.8205 5.12762 29.8975 5.18348 29.9075 5.25868C29.9168 5.32635 29.8527 5.39439 29.7893 5.42805C29.693 5.47925 29.5788 5.48319 29.4706 5.48534L29.476 5.08036C29.5698 5.07212 29.6654 5.07105 29.7514 5.10256ZM30.3597 6.29925C30.3319 6.30726 30.3031 6.31101 30.2742 6.31035C30.2712 6.28047 30.2678 6.25063 30.2641 6.22083C30.2572 6.15986 30.2467 6.09936 30.2326 6.03964C30.2051 5.9247 30.1509 5.81785 30.0744 5.72776C30.0545 5.70517 30.0328 5.68421 30.0095 5.66509C30.1438 5.56555 30.2416 5.41193 30.2258 5.23934C30.2097 5.0646 30.0912 4.91278 29.9358 4.83507C29.7492 4.74197 29.543 4.75272 29.3417 4.77527C29.3266 4.77713 29.3118 4.78049 29.2973 4.7853C29.2257 4.79354 29.1595 4.84331 29.1584 4.93677L29.1366 6.49977C29.1337 6.70566 29.4535 6.70889 29.4563 6.50299L29.466 5.80868C29.5627 5.81441 29.6629 5.82766 29.7481 5.87385C29.8466 5.92756 29.896 6.01529 29.9232 6.12164C29.9369 6.17535 29.9462 6.2305 29.9523 6.28564C29.9598 6.35403 29.9555 6.43353 29.9891 6.49547C30.0704 6.64658 30.2974 6.64909 30.4414 6.60827C30.6394 6.55277 30.5585 6.24303 30.3597 6.29925ZM23.7178 11.8566C23.6989 11.7121 23.6458 11.5742 23.5628 11.4545C23.4798 11.3347 23.3694 11.2365 23.2408 11.168C23.1495 11.1204 23.0686 11.2583 23.1603 11.3059C23.2856 11.3717 23.3899 11.4713 23.4616 11.5934C23.5333 11.7154 23.5695 11.8551 23.566 11.9966C23.5653 12.0687 23.5501 12.14 23.5212 12.2061C23.4739 12.3049 23.3919 12.3282 23.2877 12.325C23.1151 12.3199 22.9515 12.2501 22.8015 12.1696C22.5197 12.0188 22.2536 11.8086 21.927 11.7667C21.6717 11.7341 21.4082 11.8126 21.2553 12.0274C21.1955 12.1115 21.3341 12.1914 21.3935 12.1083C21.6055 11.8104 22.0284 11.9214 22.2955 12.0625C22.6124 12.2301 22.9135 12.4743 23.2877 12.485C23.4474 12.4897 23.5853 12.4345 23.6594 12.2866C23.7249 12.1563 23.7368 11.9995 23.7178 11.8566ZM24.9442 8.83228C24.9102 8.81187 24.8522 8.82154 24.8346 8.86093C24.674 9.22469 24.4833 9.57443 24.2646 9.90651C24.2076 9.99281 24.3462 10.073 24.4024 9.98744C24.6213 9.65528 24.8121 9.30541 24.9728 8.94149C24.9904 8.90175 24.9839 8.85592 24.9442 8.83228ZM21.8415 15.0607H21.0609C20.9581 15.0607 20.9577 15.2204 21.0609 15.2204H21.8415C21.9446 15.2204 21.9446 15.0607 21.8415 15.0607ZM20.5545 15.0861C19.4431 15.1112 18.3312 15.1094 17.2198 15.0811C17.1161 12.8237 17.0564 10.5645 17.0407 8.30483C17.04 8.20207 16.8803 8.20171 16.881 8.30483C16.8972 10.5907 16.958 12.876 17.0633 15.1595C17.0651 15.2035 17.098 15.2383 17.1431 15.2393C18.28 15.2694 19.4176 15.2716 20.5545 15.2461C20.6577 15.2436 20.658 15.0839 20.5545 15.0861ZM17.0049 3.768L16.8678 6.78408C16.8631 6.88721 17.0232 6.88685 17.0278 6.78408L17.165 3.768C17.1696 3.66524 17.0096 3.66559 17.0049 3.768ZM24.1536 6.35905C23.9672 6.37811 23.7792 6.37294 23.5942 6.34365C23.5975 6.20579 23.6028 6.06793 23.6096 5.93007C23.7038 5.94189 23.7991 5.94475 23.8943 5.93473C23.9158 5.93599 23.9372 5.93141 23.9563 5.92148C23.976 5.91539 23.9938 5.90415 24.0078 5.88889C24.0379 5.85913 24.0551 5.81877 24.0558 5.77646C24.0561 5.73406 24.0396 5.69328 24.01 5.66295C23.9813 5.63573 23.9387 5.61031 23.8975 5.61496C23.8076 5.62416 23.7169 5.62295 23.6272 5.61138C23.6369 5.46135 23.648 5.31096 23.6616 5.16128C23.7937 5.15197 23.9265 5.15233 24.059 5.16271C24.1453 5.16952 24.2198 5.08644 24.2205 5.00444C24.2216 4.91278 24.1489 4.8494 24.0622 4.84295C23.8802 4.82868 23.6971 4.83288 23.5158 4.85548C23.4238 4.86694 23.364 4.91779 23.3543 5.01375C23.3065 5.49939 23.2786 5.98678 23.2709 6.47471C23.2698 6.54131 23.3192 6.61507 23.3869 6.63011C23.6372 6.68687 23.8949 6.70331 24.1503 6.67881C24.2363 6.67021 24.3111 6.61364 24.3118 6.52054C24.3125 6.4414 24.2402 6.35045 24.1536 6.35905ZM22.8763 6.11949C22.7886 6.09443 22.708 6.14742 22.6786 6.22906C22.6314 6.36048 22.4681 6.38017 22.3707 6.29638C22.2196 6.16604 22.2164 5.91503 22.2103 5.73241C22.2045 5.54621 22.2049 5.32206 22.3474 5.18169C22.4448 5.08608 22.5952 5.07642 22.6529 5.20246C22.6887 5.28124 22.8007 5.302 22.8709 5.2619C22.9515 5.21607 22.9665 5.12261 22.9304 5.04383C22.8373 4.83973 22.5805 4.74591 22.3707 4.80643C22.1397 4.87339 21.9815 5.08501 21.9252 5.31167C21.8626 5.56447 21.8776 5.85738 21.9295 6.1109C21.9779 6.34651 22.1261 6.58714 22.3714 6.65339C22.6325 6.72357 22.8974 6.56458 22.9862 6.31715C23.0156 6.23587 22.9558 6.14205 22.8763 6.11949ZM21.6474 6.30677C21.4555 6.31823 21.2632 6.32288 21.0709 6.32324C21.0666 6.15924 21.0637 5.99524 21.0616 5.83124C21.1801 5.83232 21.2986 5.83088 21.4168 5.82372C21.459 5.82333 21.4995 5.8071 21.5303 5.77825C21.5605 5.74839 21.5777 5.70789 21.5783 5.66545C21.5754 5.58345 21.5095 5.49895 21.42 5.50396C21.3 5.51076 21.1794 5.51255 21.0591 5.51148C21.0587 5.39152 21.0576 5.27193 21.0583 5.15233C21.2141 5.14624 21.3699 5.14875 21.526 5.16021C21.6123 5.16629 21.6868 5.08429 21.6875 5.00158C21.6882 4.91063 21.6155 4.84653 21.5289 4.84009C21.3194 4.82499 21.1091 4.82547 20.8997 4.84152C20.8134 4.84832 20.7389 4.90705 20.7382 5.00015C20.7336 5.49429 20.7389 5.98844 20.7547 6.48258C20.755 6.52478 20.7716 6.56522 20.8012 6.59535C20.8307 6.62549 20.8708 6.64296 20.913 6.64408C21.1568 6.6473 21.4007 6.64121 21.6442 6.62653C21.7305 6.62152 21.8049 6.55885 21.8057 6.46826C21.8064 6.38626 21.734 6.3014 21.6474 6.30677ZM20.0174 6.24052C19.8849 6.32754 19.717 6.33219 19.558 6.3236L19.5129 5.14553C19.5881 5.14266 19.6636 5.14194 19.7367 5.15663C19.8244 5.17417 19.9057 5.20998 19.978 5.26262C20.132 5.37469 20.2237 5.55731 20.2301 5.74674C20.2358 5.92685 20.176 6.13632 20.0174 6.24052ZM20.1148 4.96971C20.02 4.90809 19.9141 4.86563 19.8029 4.84474C19.6633 4.81968 19.5236 4.8297 19.3829 4.82899C19.2909 4.80607 19.1817 4.85405 19.1867 4.97544L19.2447 6.49225C19.2497 6.62187 19.3797 6.67093 19.4724 6.63763C19.6644 6.6498 19.8642 6.65195 20.0453 6.58141C20.262 6.49726 20.4106 6.32718 20.4919 6.11197C20.5665 5.9069 20.5699 5.68267 20.5015 5.47543C20.4331 5.2682 20.2969 5.09005 20.1148 4.96971ZM26.2619 10.7713C26.224 10.8395 26.1804 10.9045 26.1316 10.9653C26.1236 10.9753 26.1154 10.9849 26.1069 10.9943L26.1062 10.9936C26.0958 10.9825 26.0861 10.9711 26.0764 10.9596L26.022 10.8987C25.8322 10.6874 25.6333 10.4844 25.4258 10.2904C25.3506 10.2202 25.2371 10.333 25.3127 10.4035C25.5093 10.5871 25.6982 10.7788 25.8788 10.9782C25.9497 11.0563 26.046 11.2207 26.172 11.1472C26.2229 11.1179 26.2594 11.0617 26.2941 11.0155C26.3332 10.9636 26.3683 10.9088 26.4001 10.8518C26.4506 10.762 26.3124 10.6814 26.2619 10.7713ZM26.0324 4.99048C26.0431 4.85763 25.8487 4.77062 25.7603 4.87482C25.5909 5.07878 25.4144 5.27668 25.231 5.46815C25.1093 5.29628 24.9907 5.12225 24.8787 4.94393C24.8704 4.90816 24.8505 4.87612 24.8222 4.85281C24.7938 4.82949 24.7585 4.81621 24.7218 4.81502C24.6957 4.81448 24.6698 4.82069 24.6467 4.83305C24.6236 4.8454 24.6041 4.86349 24.5901 4.88556C24.5727 4.90322 24.5604 4.92527 24.5545 4.94936C24.5487 4.97344 24.5494 4.99867 24.5568 5.02235C24.5171 5.50998 24.498 5.99907 24.4995 6.48831C24.5002 6.69385 24.8199 6.69779 24.8192 6.49154C24.8184 6.15284 24.8275 5.8142 24.8464 5.47603C24.9198 5.58309 24.9943 5.68944 25.0717 5.794C25.1325 5.87636 25.241 5.90644 25.3227 5.82874C25.4477 5.70837 25.5678 5.58293 25.6825 5.45275C25.6655 5.79049 25.6606 6.12874 25.6679 6.46683C25.6722 6.67236 25.9923 6.6763 25.9876 6.47005C25.9769 5.97626 25.9916 5.48248 26.0324 4.99048ZM26.9938 5.22896C26.996 5.24221 26.9988 5.25545 26.9931 5.27193C26.9805 5.30032 26.959 5.32383 26.9319 5.33889C26.8671 5.38078 26.7851 5.39296 26.7074 5.40227L26.7156 5.11294C26.8284 5.08286 26.9713 5.10005 26.9938 5.22896ZM27.3609 5.5233C27.3274 5.49817 27.2912 5.47679 27.2531 5.45956C27.3129 5.36145 27.3315 5.24077 27.2982 5.12762C27.2761 5.05472 27.2374 4.98798 27.1849 4.93272C27.1325 4.87745 27.068 4.83519 26.9963 4.80929C26.8467 4.75415 26.6862 4.77706 26.5423 4.8365C26.47 4.84402 26.4016 4.8938 26.3991 4.98761L26.3575 6.47256C26.3556 6.49857 26.3609 6.52462 26.3728 6.54781C26.3848 6.571 26.4029 6.59044 26.4252 6.60397L26.4256 6.60433L26.4295 6.60684C26.4557 6.62525 26.487 6.63513 26.519 6.63512C26.6468 6.63727 26.7747 6.63906 26.9022 6.64014C27.0167 6.64121 27.1378 6.64408 27.2481 6.60684C27.3533 6.57174 27.4511 6.51016 27.5112 6.41419C27.5707 6.31858 27.5882 6.20149 27.5929 6.09121C27.6022 5.87672 27.5363 5.65722 27.3609 5.5233Z" fill="white"/>
<path d="M28.7985 13.6883C28.795 13.7481 28.7971 13.757 28.7427 13.7782C28.6739 13.8047 28.598 13.8208 28.5268 13.8376C28.2228 13.9092 27.9102 13.9397 27.599 13.9586C26.9985 13.9948 26.3933 13.9694 25.7979 13.8809C25.7903 13.7487 25.7929 13.6161 25.8054 13.4842C25.8061 13.4781 25.8111 13.4573 25.8118 13.4448C25.8441 13.4373 25.8935 13.428 25.901 13.4269C25.9816 13.4154 26.0643 13.4172 26.1456 13.4215C26.3135 13.4298 26.4811 13.4552 26.6497 13.4534C26.8026 13.452 26.9985 13.4441 27.0447 13.2661C27.064 13.1906 27.0508 13.1053 27.049 13.0287L27.0418 12.7512L27.0279 12.1962L27.0003 11.1058L26.9688 9.85724C26.9656 9.72403 26.7969 9.63738 26.697 9.74086L26.1284 10.3303L25.839 9.98793C26.1244 9.63537 26.4361 9.30499 26.7715 8.99964C26.832 8.94486 26.8803 8.89616 26.9645 8.88757C27.1238 8.87109 27.2907 8.87969 27.4529 8.89294C27.4787 9.03473 27.4841 9.17832 27.4905 9.32299L27.5163 9.91668C27.5327 10.3127 27.5474 10.7087 27.5564 11.1048C27.5657 11.5005 27.5689 11.8965 27.5632 12.2925C27.5604 12.4904 27.5552 12.6881 27.5474 12.8858C27.5406 13.0567 27.5002 13.2772 27.7018 13.3503C27.7888 13.3821 27.8937 13.3821 27.9854 13.3882C28.2547 13.4068 28.5252 13.3982 28.7928 13.3624C28.8032 13.4706 28.8054 13.5798 28.7985 13.6883ZM39.6826 34.3629C36.6125 34.5105 33.5406 34.6218 30.4675 34.6988C29.8137 33.7427 29.1577 32.7885 28.4999 31.8353C27.6731 30.6371 26.8438 29.4283 25.8387 28.3698C24.8253 27.3031 23.6197 26.4537 22.4531 25.5664C21.213 24.6228 19.996 23.6493 18.8032 22.6467C18.1399 22.0893 17.4846 21.5225 16.8374 20.9465C16.5262 20.6697 16.2218 20.3843 15.911 20.1075C15.6503 19.8748 15.4226 19.6173 15.1412 19.4082C14.8486 19.1909 14.5682 18.9527 14.2911 18.7161C14.1579 18.6025 14.0268 18.4869 13.8961 18.3705C15.2446 19.1468 16.8628 19.3874 18.4043 19.333C19.7195 19.2865 21.0129 18.9452 22.1269 18.233C22.1718 18.2055 22.2068 18.1644 22.2266 18.1156C22.2465 18.0668 22.2502 18.013 22.2372 17.9619L22.1219 17.5434L22.466 17.2021C22.5519 17.1169 22.6518 16.9747 22.78 16.9557C22.9064 16.9371 23.0428 16.9651 23.1714 16.9568C23.3072 16.9484 23.4419 16.9276 23.5739 16.8945C24.085 16.7637 24.533 16.4553 24.8375 16.0244L25.0058 16.0247C26.3855 16.0226 27.7655 16.0086 29.1448 15.9821C30.4865 15.9567 31.835 15.9535 33.166 15.7662C33.2956 15.748 33.3322 15.6427 33.3425 15.5299C33.3583 15.358 33.3712 15.1854 33.383 15.0132C33.407 14.6669 33.4249 14.3207 33.4385 13.974C33.4664 13.2801 33.4783 12.5858 33.4897 11.8915L33.4979 11.393C33.5353 9.32119 33.5166 7.24872 33.4417 5.17789C33.4278 4.79296 33.4002 4.40874 33.3794 4.02417C33.3687 3.83583 33.3608 3.64734 33.3558 3.45877C33.3501 3.21277 33.3884 3.03982 33.0905 2.98467C32.7184 2.91556 32.3002 3.02048 31.9224 3.02084C31.4845 3.0212 31.0469 2.99076 30.609 2.98754L28.824 2.97536C28.8297 2.95659 28.832 2.93694 28.8308 2.91735C28.8118 2.55068 28.8118 2.17685 28.7516 1.81376C28.7008 1.50582 28.5658 1.08758 28.202 1.0439C27.836 1.00021 27.6473 1.43205 27.5782 1.72353C27.4977 2.06334 27.5156 2.41927 27.537 2.76481C27.5413 2.83177 27.5464 2.89909 27.5517 2.96641L26.601 2.95961C26.6035 2.94672 26.6046 2.93275 26.6035 2.91735C26.5849 2.55068 26.5849 2.17685 26.5248 1.81376C26.4736 1.50582 26.3389 1.08758 25.9748 1.0439C25.6092 1.00021 25.4201 1.43205 25.3513 1.72353C25.2708 2.06334 25.2883 2.41927 25.3102 2.76481C25.3141 2.82676 25.3184 2.88871 25.3234 2.95065L24.3555 2.94385C24.3563 2.93562 24.3566 2.92666 24.3562 2.91735C24.3373 2.55068 24.3373 2.17685 24.2771 1.81376C24.2263 1.50582 24.0913 1.08758 23.7275 1.0439C23.3615 1.00021 23.1725 1.43205 23.1037 1.72353C23.0231 2.06334 23.0407 2.41927 23.0625 2.76481C23.0661 2.82139 23.07 2.87832 23.0747 2.9349L22.5057 2.93096L22.3231 2.92953C22.3052 2.56787 22.3041 2.19905 22.245 1.84133C22.1938 1.53303 22.0592 1.11515 21.695 1.07147C21.3291 1.02743 21.1404 1.45927 21.0716 1.7511C20.991 2.09091 21.0086 2.44648 21.0304 2.79203C21.0329 2.835 21.0362 2.87761 21.039 2.92058L19.8935 2.9127L17.8747 2.89838C17.551 2.89623 17.209 2.92201 16.8785 2.89838C16.6823 2.88441 16.3124 2.78379 16.2952 3.08959C16.0868 6.86157 16.1874 10.6382 16.3203 14.4113C13.9051 12.3022 11.4297 10.0126 10.5159 6.83758C10.5062 6.80529 10.4899 6.7754 10.4679 6.74985C10.407 6.46637 10.3984 6.17417 10.4425 5.8876C10.5234 5.91589 10.6083 5.93307 10.6928 5.93916C10.9749 5.95886 11.2553 5.8543 11.4838 5.68994C11.4988 5.70184 11.5159 5.71083 11.5342 5.71644C12.134 5.90407 12.732 5.51019 12.843 4.91757C13.1388 4.78723 13.3737 4.53156 13.456 4.21431C13.5413 3.88524 13.4539 3.53181 13.2416 3.27149C13.3869 2.84681 13.3257 2.37666 13.1345 1.97454C12.9297 1.54485 12.5562 1.21112 12.1344 0.999854C11.9158 0.890894 11.685 0.808315 11.4469 0.753855C11.1962 0.696205 10.9302 0.655384 10.6727 0.686537C10.1707 0.747052 9.71486 1.08902 9.39903 1.47037C9.09359 1.83847 8.89844 2.28427 8.92351 2.75944C8.58835 2.85577 8.39678 3.23712 8.31764 3.56082C8.25928 3.79822 8.24818 4.05031 8.34915 4.27769C8.40967 4.41411 8.51029 4.53013 8.63633 4.60533C8.62917 4.7328 8.65495 4.86171 8.70472 4.98453C8.75521 5.10986 8.83685 5.22158 8.94786 5.27636C8.86639 5.40573 8.7799 5.53186 8.68861 5.65449C8.59372 5.78197 8.48164 5.91625 8.36634 6.04444C8.35067 6.05091 8.33558 6.0587 8.32122 6.06771C8.15257 6.1737 8.05088 6.40144 7.98141 6.58012C7.82731 6.97493 7.69075 7.37637 7.57213 7.78326C7.33685 8.59416 7.16505 9.42215 7.05829 10.2597C6.91183 11.3927 6.87424 12.5378 6.9215 13.6786C6.94872 14.3432 7.03072 15.0035 7.10806 15.6631C7.14781 16.0022 7.18719 16.3416 7.21692 16.6818C7.21835 16.6986 7.21906 16.7162 7.22014 16.7334C6.97593 16.8616 6.8259 17.1706 6.70952 17.4033C6.56367 17.6983 6.46138 18.0129 6.40587 18.3372C6.28986 18.9954 6.34607 19.6743 6.48393 20.3245C6.66977 21.1979 6.92365 22.0548 7.18934 22.9066C7.47043 23.8079 7.75224 24.6787 7.81705 25.6348C7.88688 26.6707 7.92913 27.7156 7.80309 28.749C7.5467 30.857 6.49897 32.7129 5.44838 34.5423C4.05868 34.49 2.66899 34.4306 1.27965 34.364C0.971344 34.3493 0.957737 34.8288 1.26604 34.8438C2.57016 34.9061 3.87463 34.9616 5.1791 35.0114C4.86901 35.5532 4.56464 36.0942 4.28677 36.6406C4.26173 36.6869 4.25188 36.7399 4.25863 36.7921C4.26538 36.8443 4.28838 36.893 4.32437 36.9314C4.51169 37.1477 4.72451 37.3406 4.95817 37.5058C4.88082 37.6869 4.80097 37.8674 4.73007 38.0511C4.66383 38.223 4.61262 38.4106 4.63411 38.5961C4.68818 39.0595 5.15153 39.1536 5.52823 39.2568C6.43201 39.5045 7.34403 39.7215 8.2625 39.907C9.15948 40.0878 10.0744 40.2741 10.9932 40.2708C11.4215 40.2694 11.8902 40.2407 12.2984 40.1004C12.4699 40.0413 12.6318 39.94 12.6937 39.7606C12.7556 39.5812 12.6794 39.3821 12.5523 39.251C12.3908 39.0849 12.1551 39.0405 11.9392 38.9889C11.3045 38.8384 10.7 38.581 10.1517 38.2276C10.4299 38.1313 10.6645 37.9627 10.85 37.6572C11.2682 36.9686 11.5668 36.1762 11.8884 35.4389L11.9861 35.2137C15.404 35.286 18.8229 35.3136 22.2414 35.2989C22.6024 35.7634 22.963 36.2289 23.3243 36.6933L24.1375 37.7389C24.3423 38.0021 24.5453 38.4468 24.8973 38.489C25.3134 38.5392 25.7531 38.5205 26.1849 38.4693C26.3031 38.932 26.5423 39.3932 26.9663 39.6399C27.2155 39.7849 27.5023 39.8372 27.7859 39.8619C28.0505 39.8848 28.3173 39.8888 28.5826 39.8795C29.6164 39.844 30.6348 39.5916 31.5729 39.1583C32.5043 38.7275 33.3561 38.1091 34.0415 37.3443C34.3731 36.9744 34.792 36.4838 34.6427 35.9467C34.5833 35.7326 34.4282 35.531 34.2034 35.4783C33.9101 35.4092 33.59 35.5904 33.3465 35.734C33.0715 35.8962 32.8029 36.0656 32.5175 36.2092C32.2253 36.3562 31.924 36.4846 31.6155 36.5934C31.1969 36.7405 30.7668 36.8526 30.3297 36.9285C30.653 36.7038 30.9613 36.4581 31.2524 36.1931C31.3262 36.1261 31.3473 35.9864 31.29 35.9023L30.7902 35.1704C30.9474 35.1668 31.1046 35.1636 31.2614 35.1593C34.0651 35.0834 36.8678 34.977 39.669 34.8427C39.9755 34.8277 39.9917 34.3482 39.6826 34.3629ZM21.8701 34.822C18.6428 34.8334 15.4151 34.8062 12.1881 34.7393C12.4002 34.2347 12.6048 33.727 12.8018 33.2164C13.3787 31.7221 14.034 30.1537 14.1883 28.5467C14.2596 27.8026 14.174 27.0789 13.9985 26.3728C16.374 28.2094 18.3864 30.466 20.2674 32.7963C20.8072 33.4671 21.3415 34.1424 21.8701 34.822ZM27.5976 3.44659C27.6201 3.65607 27.6459 3.86554 27.6713 4.07502C27.6656 4.07265 27.6599 4.07038 27.6541 4.06821L27.6309 4.05568L27.6173 4.04709C27.6083 4.03939 27.6 4.03088 27.5925 4.02166C27.5767 3.99774 27.5641 3.97186 27.555 3.94468C27.5355 3.89427 27.5266 3.8404 27.5288 3.78641C27.5288 3.70262 27.4554 3.62241 27.3687 3.62635C27.3265 3.62699 27.2862 3.64408 27.2564 3.67396C27.2266 3.70385 27.2096 3.74419 27.209 3.78641C27.209 3.95399 27.2595 4.14985 27.3856 4.26874C27.5091 4.38547 27.7014 4.43023 27.8672 4.43273C28.1963 4.43739 28.5135 4.20929 28.5246 3.86339C28.5243 3.82103 28.5074 3.78048 28.4774 3.75052C28.4475 3.72057 28.4069 3.70361 28.3646 3.70333C28.3225 3.70434 28.2824 3.72153 28.2526 3.75134C28.2229 3.78116 28.2058 3.82129 28.2049 3.86339L28.2031 3.88667L28.1984 3.90672C28.1954 3.91828 28.1917 3.92964 28.1873 3.94074L28.187 3.94181C28.1856 3.94415 28.1842 3.94642 28.1827 3.94861C28.1751 3.96115 28.1683 3.97368 28.1605 3.98585L28.1572 3.99015C28.1401 4.01032 28.1216 4.02922 28.1017 4.04673L28.0935 4.05174L28.0684 4.06714C28.0571 4.07375 28.0454 4.07972 28.0333 4.08504L28.0197 4.0897C28.0111 4.09256 28.0025 4.09399 27.994 4.09614C27.9675 3.88165 27.9392 3.66573 27.9137 3.44874L32.8878 3.48347C32.9454 4.61929 32.9855 5.75547 33.0095 6.892C27.5604 7.01481 22.1098 7.06172 16.6594 7.03273C16.668 5.81169 16.6988 4.59065 16.7611 3.37032L21.0827 3.40076C21.1074 3.63494 21.1361 3.86876 21.1647 4.10223L21.1475 4.09578L21.1239 4.08325L21.1103 4.07466C21.1189 4.08254 21.1192 4.08254 21.111 4.07537C21.1019 4.06729 21.0934 4.05855 21.0856 4.04923C21.0845 4.04601 21.0763 4.03312 21.0741 4.02918C21.0678 4.01838 21.0621 4.00727 21.0569 3.99588L21.048 3.97225C21.0285 3.92172 21.0196 3.86773 21.0218 3.81362C21.0218 3.72983 20.9484 3.64962 20.8621 3.65356C20.8199 3.6543 20.7796 3.6714 20.7498 3.70125C20.7199 3.73111 20.7028 3.7714 20.7021 3.81362C20.7021 3.9812 20.7529 4.17743 20.8786 4.29631C21.0025 4.41304 21.1948 4.4578 21.3606 4.46031C21.6893 4.46496 22.0066 4.23687 22.0177 3.89096C22.0205 3.80717 21.9425 3.72697 21.858 3.7309C21.8157 3.73164 21.7754 3.74874 21.7456 3.7786C21.7157 3.80846 21.6986 3.84874 21.6979 3.89096L21.6961 3.91424L21.6918 3.93393C21.6886 3.94575 21.6846 3.95685 21.6807 3.96831L21.6803 3.96903L21.676 3.97619L21.6535 4.01343L21.6503 4.01772C21.6333 4.03788 21.6147 4.05668 21.5948 4.07394L21.5865 4.07895C21.5783 4.08397 21.5701 4.0897 21.5618 4.09435C21.5504 4.10093 21.5387 4.10703 21.5267 4.11261L21.5128 4.11727C21.5045 4.11978 21.4956 4.12121 21.487 4.12371C21.4576 3.88488 21.4258 3.64425 21.3985 3.40291L23.1195 3.41508C23.1431 3.6353 23.1699 3.85516 23.1968 4.07502C23.1911 4.07265 23.1854 4.07038 23.1796 4.06821C23.1718 4.06383 23.164 4.05965 23.156 4.05568L23.1424 4.04709C23.1335 4.03929 23.1252 4.03079 23.1177 4.02166C23.1166 4.0188 23.1084 4.00555 23.1062 4.00197C23.1001 3.99093 23.0944 3.97971 23.089 3.96831L23.0804 3.94468C23.0609 3.89427 23.052 3.8404 23.0543 3.78641C23.0543 3.70262 22.9805 3.62241 22.8942 3.62635C22.852 3.62699 22.8116 3.64406 22.7818 3.67394C22.7519 3.70382 22.7348 3.74416 22.7342 3.78641C22.7342 3.95399 22.785 4.14985 22.9111 4.26874C23.0346 4.38547 23.2269 4.43023 23.3927 4.43273C23.7214 4.43739 24.0386 4.20929 24.0501 3.86339C24.0526 3.7796 23.9745 3.69975 23.89 3.70333C23.8479 3.70433 23.8078 3.72152 23.778 3.75132C23.7482 3.78112 23.731 3.82126 23.73 3.86339L23.7282 3.88667C23.7247 3.90511 23.7195 3.92321 23.7128 3.94074L23.7124 3.94181C23.7108 3.94398 23.7094 3.94625 23.7081 3.94861C23.7006 3.96115 23.6935 3.97368 23.6856 3.98585L23.6827 3.99015C23.6657 4.01041 23.6471 4.02933 23.6272 4.04673C23.6243 4.04819 23.6216 4.04986 23.619 4.05174L23.5939 4.06714C23.5825 4.07367 23.5708 4.07965 23.5588 4.08504L23.5452 4.0897C23.5366 4.09256 23.528 4.09399 23.5194 4.09614C23.4915 3.87127 23.4618 3.64461 23.4353 3.41723L25.3689 3.43084C25.3918 3.64568 25.4183 3.86017 25.4444 4.07502L25.4273 4.06821C25.4194 4.06391 25.4116 4.05973 25.4036 4.05568L25.39 4.04709C25.3811 4.03937 25.373 4.03086 25.3657 4.02166L25.3539 4.00197C25.3478 3.99093 25.342 3.97971 25.3367 3.96831L25.3277 3.94468C25.3082 3.89427 25.2993 3.8404 25.3016 3.78641C25.3016 3.70262 25.2282 3.62241 25.1419 3.62635C25.0996 3.62699 25.0593 3.64406 25.0294 3.67394C24.9995 3.70382 24.9825 3.74416 24.9818 3.78641C24.9818 3.95399 25.0327 4.14985 25.1583 4.26874C25.2822 4.38547 25.4745 4.43023 25.6403 4.43273C25.969 4.43739 26.2863 4.20929 26.2977 3.86339C26.3002 3.7796 26.2222 3.69975 26.1377 3.70333C26.0955 3.70425 26.0553 3.7214 26.0255 3.75122C25.9957 3.78104 25.9785 3.82123 25.9776 3.86339L25.9758 3.88667L25.9715 3.90672C25.9684 3.91823 25.9647 3.92958 25.9604 3.94074L25.9601 3.94181C25.9585 3.94398 25.9571 3.94625 25.9558 3.94861C25.9483 3.96115 25.9411 3.97368 25.9332 3.98585L25.9304 3.99015C25.9131 4.01021 25.8946 4.02911 25.8749 4.04673C25.872 4.04819 25.8692 4.04986 25.8666 4.05174L25.8416 4.06714C25.8301 4.0736 25.8184 4.07958 25.8065 4.08504L25.7925 4.0897C25.7843 4.09256 25.7753 4.09399 25.7671 4.09614C25.7399 3.87664 25.7105 3.65535 25.6847 3.43298L27.5976 3.44659ZM27.865 2.96856C27.842 2.70748 27.8341 2.44529 27.8414 2.1833C27.85 1.92691 27.888 1.61252 28.0659 1.412C28.2761 1.1746 28.4201 1.76435 28.4401 1.88144C28.4992 2.22018 28.4935 2.57503 28.5107 2.91735C28.5115 2.93653 28.5156 2.95542 28.5228 2.97321L28.1927 2.97071L27.865 2.96856ZM24.039 2.9417L23.3877 2.93705C23.3668 2.68638 23.3599 2.43474 23.3669 2.1833C23.3755 1.92691 23.4134 1.61252 23.591 1.412C23.8016 1.1746 23.9452 1.76435 23.9656 1.88144C24.0243 2.22018 24.0186 2.57503 24.0361 2.91735C24.0365 2.92553 24.0375 2.93366 24.039 2.9417ZM22.003 2.92738L21.3523 2.92273C21.3337 2.68593 21.3277 2.4483 21.3344 2.21087C21.3434 1.95413 21.381 1.64009 21.559 1.43921C21.7691 1.20181 21.9131 1.79156 21.9335 1.90901C21.9912 2.24202 21.9865 2.59007 22.003 2.92738ZM25.6367 2.9528C25.6145 2.69694 25.6071 2.44001 25.6145 2.1833C25.6231 1.92691 25.6607 1.61252 25.8387 1.412C26.0492 1.1746 26.1928 1.76435 26.2132 1.88144C26.272 2.22018 26.2662 2.57503 26.2838 2.91735C26.2845 2.93168 26.2866 2.94493 26.2902 2.95746L25.6367 2.9528ZM5.92462 37.0596C5.90623 37.0494 5.88461 37.0467 5.86426 37.052C5.84391 37.0573 5.82641 37.0703 5.8154 37.0882L5.64747 37.3629C5.32714 37.1973 5.03581 36.9809 4.78486 36.7219C5.79535 34.7711 7.05721 32.9349 7.78841 30.8505C8.12607 29.8877 8.28004 28.8722 8.32445 27.8552C8.36777 26.8648 8.37852 25.8124 8.21308 24.8334C8.08776 24.0911 7.84785 23.3764 7.63121 22.6574C7.44084 22.0322 7.25976 21.4042 7.08801 20.7736C6.7883 19.6603 6.60604 18.3601 7.28173 17.3557C7.28996 17.3826 7.29927 17.4094 7.31073 17.4349C7.48189 17.8248 7.92412 17.9662 8.38281 18.016C8.31478 18.2659 8.27145 18.5223 8.25247 18.7805C8.24925 18.8238 8.2915 18.8607 8.33232 18.8607C8.37852 18.8607 8.40931 18.8238 8.41253 18.7805C8.43079 18.5316 8.47448 18.2853 8.54072 18.0447C8.5422 18.0398 8.54316 18.0347 8.54359 18.0296C8.8254 18.0486 9.10219 18.0393 9.3156 18.0386C10.3186 18.0353 11.3019 17.8051 12.2078 17.3862C12.2189 17.4148 12.2361 17.4427 12.2619 17.4692C12.9572 18.1847 13.7189 18.831 14.4766 19.4784C15.2446 20.1348 15.9783 20.8283 16.736 21.4962C18.2841 22.8608 19.875 24.1761 21.5063 25.44C22.6557 26.3298 23.8664 27.157 24.9328 28.1481C26.041 29.1787 26.9294 30.4076 27.7877 31.6466C28.7867 33.0878 29.7772 34.5352 30.7658 35.9839C29.7249 36.8875 28.4763 37.5192 27.1317 37.8227C26.6091 37.9414 26.0759 38.0073 25.5401 38.0196C25.3864 38.0232 25.101 38.0762 24.9618 38.0128C24.8443 37.9594 24.7004 37.6869 24.6202 37.5838L24.2377 37.0918L23.4722 36.1082C21.574 33.6679 19.7048 31.1886 17.56 28.956C16.3901 27.7381 15.1351 26.6066 13.7737 25.6069C13.532 24.8857 13.2186 24.1828 12.9075 23.4949C12.7807 23.2139 12.3671 23.4577 12.4935 23.7374C13.0847 25.0447 13.7067 26.4179 13.735 27.8789C13.7629 29.3337 13.2004 30.7524 12.7102 32.0988C12.2011 33.499 11.634 34.8773 11.0104 36.2303C10.7676 36.757 10.5248 37.6801 9.88423 37.8248C9.35248 37.9444 8.73731 37.9211 8.19518 37.9111C7.37125 37.8961 6.52547 37.7797 5.79141 37.4345L5.95326 37.1692C5.97511 37.1334 5.96221 37.0797 5.92462 37.0596ZM6.71561 35.705C6.6798 35.6839 6.62645 35.6953 6.60639 35.7336L6.26586 36.3821C6.25572 36.4006 6.25304 36.4222 6.25836 36.4426C6.26369 36.463 6.27663 36.4806 6.29451 36.4917C6.33068 36.5125 6.38403 36.5014 6.40408 36.463L6.74425 35.8146C6.75467 35.7962 6.7575 35.7744 6.75215 35.754C6.74681 35.7335 6.7337 35.7159 6.71561 35.705ZM7.56568 34.0679L7.19328 34.7142C7.14208 34.8037 7.27994 34.8843 7.3315 34.7951L7.70354 34.1488C7.7551 34.0593 7.61689 33.9787 7.56568 34.0679ZM8.47914 32.541C8.44369 32.5203 8.38926 32.531 8.36956 32.5697L8.01901 33.2654C7.99967 33.3041 8.00898 33.3521 8.04765 33.375C8.08346 33.3958 8.13753 33.385 8.15722 33.346L8.50778 32.6506C8.52712 32.6119 8.51781 32.5639 8.47914 32.541ZM9.07569 31.0049C9.03666 30.9941 8.9851 31.0181 8.97722 31.0607C8.93731 31.2772 8.86715 31.4869 8.76882 31.6838C8.74948 31.7225 8.75844 31.7708 8.79747 31.7934C8.83292 31.8141 8.88734 31.8034 8.90704 31.7647C9.01248 31.5559 9.08794 31.3333 9.13119 31.1034C9.13943 31.0607 9.11973 31.0171 9.07569 31.0049ZM9.43448 29.4L9.27263 30.0159C9.24649 30.1154 9.40082 30.158 9.42696 30.0585L9.58881 29.4422C9.61495 29.3427 9.46062 29.3001 9.43448 29.4ZM9.82944 27.5981C9.82907 27.5771 9.82054 27.557 9.80565 27.5421C9.79075 27.5272 9.77065 27.5187 9.74959 27.5183C9.7077 27.5183 9.66759 27.5548 9.66938 27.5981C9.67905 27.8219 9.66974 28.0457 9.64109 28.2677C9.63572 28.3107 9.68191 28.3476 9.7213 28.3476C9.76893 28.3476 9.79578 28.3107 9.80115 28.2677C9.8298 28.0457 9.83911 27.8219 9.82944 27.5981ZM9.87635 25.97C9.86776 25.9277 9.81763 25.903 9.77788 25.9141C9.73419 25.9263 9.71342 25.97 9.72202 26.0126C9.76027 26.1993 9.77364 26.3903 9.76177 26.5805C9.7589 26.6235 9.80008 26.6603 9.84162 26.6603C9.88709 26.6603 9.91896 26.6238 9.92147 26.5805C9.93354 26.3759 9.91837 26.1706 9.87635 25.97ZM9.71951 24.2541C9.70949 24.2118 9.6615 24.1871 9.62104 24.1982C9.60076 24.2041 9.58358 24.2177 9.57315 24.2361C9.56272 24.2545 9.55986 24.2762 9.56518 24.2967C9.61137 24.4925 9.64539 24.6913 9.66508 24.8918C9.66938 24.9351 9.69874 24.972 9.74529 24.972C9.78504 24.972 9.82944 24.9351 9.82514 24.8918C9.80394 24.6771 9.76865 24.4641 9.71951 24.2541ZM9.50431 23.1823L9.28875 22.6202C9.27335 22.5801 9.23468 22.5521 9.19028 22.5643C9.1516 22.575 9.11866 22.6223 9.13442 22.6628L9.34998 23.225C9.36537 23.2654 9.40369 23.293 9.44845 23.2808C9.48712 23.2704 9.51971 23.2232 9.50431 23.1823ZM8.92995 21.5323C8.83313 21.3639 8.75896 21.1834 8.70938 20.9956C8.70361 20.9753 8.69009 20.958 8.67174 20.9476C8.65339 20.9371 8.63168 20.9343 8.61127 20.9397C8.59093 20.9456 8.57369 20.9591 8.56325 20.9775C8.55281 20.996 8.54999 21.0177 8.55541 21.0382C8.60542 21.2276 8.67879 21.4101 8.77383 21.5814C8.61055 21.623 8.44117 21.6353 8.2736 21.6175C8.18766 21.6079 8.11354 21.6974 8.11354 21.7772C8.11354 21.8714 8.1873 21.928 8.2736 21.9373C8.8612 22.0007 9.46098 21.7217 9.82228 21.2602C10.2119 20.7628 10.3207 20.0993 10.1796 19.4902C10.1334 19.29 9.82479 19.3746 9.87134 19.5754C9.98807 20.0789 9.90142 20.6454 9.57736 21.0579C9.40876 21.272 9.18492 21.436 8.92995 21.5323ZM8.49847 20.1974C8.4464 19.9691 8.42556 19.7348 8.43652 19.501C8.43831 19.458 8.39821 19.4211 8.35632 19.4211C8.33525 19.4215 8.31516 19.43 8.30026 19.4449C8.28536 19.4598 8.27683 19.4799 8.27646 19.501C8.26556 19.7493 8.28845 19.9979 8.3445 20.24C8.36742 20.3403 8.52175 20.2977 8.49847 20.1974ZM7.45002 11.0443C7.45468 10.9902 7.46041 10.9365 7.46578 10.8828C7.89173 11.037 8.34606 11.0971 8.79747 11.0589C8.80992 11.0577 8.82226 11.0554 8.83435 11.0521C9.03471 11.6618 9.27122 12.2589 9.54262 12.8404C8.82175 12.9498 8.08626 12.9139 7.37948 12.7347C7.37948 12.1708 7.40097 11.6064 7.45002 11.0443ZM7.54527 10.206C7.895 10.3134 8.25944 10.3651 8.62523 10.3593C8.646 10.4348 8.66748 10.51 8.68968 10.5852C8.2997 10.6051 7.90987 10.5431 7.54527 10.4033C7.53632 10.3997 7.52844 10.3986 7.51949 10.3965C7.52773 10.3328 7.53668 10.2694 7.54527 10.206ZM7.96207 8.16532C8.78959 8.60898 9.71629 8.74577 10.6441 8.57282C10.653 8.57103 10.6605 8.56816 10.6688 8.56565C10.8188 8.87754 10.9839 9.18011 11.1608 9.47553C10.4983 9.79493 9.81154 10.1115 9.0696 10.162C9.0517 10.0971 9.0338 10.0327 9.01697 9.96752C8.94034 9.66853 8.47734 9.79529 8.55433 10.095C8.56328 10.1301 8.57295 10.1648 8.58226 10.1999C8.23832 10.2008 7.89628 10.1488 7.56819 10.0456C7.66114 9.41141 7.79268 8.78349 7.96207 8.16532ZM8.16439 7.49178C8.8571 7.83732 9.62704 7.99885 10.4002 7.96086C10.4217 8.0135 10.4432 8.06614 10.4654 8.11842C9.6436 8.25914 8.82289 8.1066 8.09993 7.69302C8.1207 7.6257 8.14254 7.55874 8.16439 7.49178ZM8.47699 6.62524C8.8877 7.09861 9.5104 7.32456 10.1238 7.19494C10.1886 7.40155 10.2606 7.60386 10.3379 7.80331C9.60251 7.83047 8.87221 7.67081 8.21523 7.33924C8.29652 7.09933 8.38317 6.86085 8.47699 6.62524ZM9.05528 5.70283C9.13048 5.59863 9.19278 5.4862 9.25903 5.37627C9.28982 5.32506 9.31882 5.26311 9.36072 5.22014C9.40118 5.17861 9.4574 5.15354 9.49822 5.11129C9.69802 4.90202 9.81398 4.62664 9.82407 4.33749C9.82622 4.28664 9.79328 4.22111 9.74494 4.19963C9.62104 4.14412 9.56196 4.00913 9.65327 3.90421C9.73205 3.81326 9.89211 3.82508 9.93722 3.94647C9.9673 4.02739 10.0454 4.08254 10.1338 4.05819C10.155 4.05192 10.1746 4.04131 10.1915 4.02703C10.206 4.02378 10.2201 4.01873 10.2334 4.01199C10.4613 3.88797 10.6379 3.68713 10.7318 3.44516C10.9607 3.41764 11.1838 3.35357 11.3924 3.25538C11.7133 3.52358 11.8175 4.06893 11.7956 4.45243C11.7652 4.98202 11.4343 5.51806 10.8793 5.61116C10.6605 5.64805 10.3487 5.58431 10.2846 5.33759C10.2326 5.13886 9.92397 5.22301 9.97589 5.42282C10.0063 5.53919 10.0683 5.63623 10.1492 5.71357C10.0847 6.0378 10.0791 6.371 10.1327 6.69721C9.85379 6.77635 9.5505 6.7656 9.2823 6.6503C9.12856 6.58422 8.99054 6.48635 8.87732 6.36312C8.82146 6.30261 8.7613 6.22168 8.69434 6.15437C8.82085 6.00891 8.94126 5.85827 9.05528 5.70283ZM11.3728 9.81856C10.7085 10.2281 9.95966 10.4809 9.18311 10.558C9.15912 10.4785 9.13621 10.3986 9.11329 10.3192C9.86919 10.2586 10.5678 9.93852 11.2442 9.61231C11.2868 9.68106 11.3291 9.75017 11.3728 9.81856ZM11.6381 10.2157C11.806 10.4574 11.9833 10.6933 12.1663 10.925C11.4654 11.5102 10.6268 11.9071 9.7299 12.078C9.5841 11.7313 9.45104 11.3793 9.331 11.0228C10.1407 10.9271 10.9202 10.6574 11.6159 10.2321C11.6245 10.2271 11.6306 10.221 11.6381 10.2157ZM12.4853 11.3185C11.7045 11.8707 10.8072 12.2361 9.86274 12.3863C9.83947 12.3337 9.81727 12.2807 9.79435 12.2281C10.7035 12.0488 11.553 11.6438 12.2647 11.0503C12.3374 11.1402 12.4108 11.2297 12.4853 11.3185ZM12.7961 11.6798C13.0909 12.0124 13.3955 12.3361 13.7096 12.6506C12.93 13.4491 11.9102 13.9612 10.8439 14.2634C10.7269 14.0653 10.6124 13.8657 10.5005 13.6647C10.3498 13.3923 10.2067 13.1157 10.0715 12.8354C11.0434 12.6665 11.9646 12.2805 12.7664 11.706C12.7778 11.6978 12.7868 11.6888 12.7961 11.6798ZM14.0265 12.9646C13.1674 13.7173 12.1752 14.3028 11.101 14.6909C11.0419 14.5964 10.986 14.5008 10.9291 14.4055C12.0058 14.0944 13.036 13.5705 13.8231 12.7634C13.8907 12.8303 13.9581 12.898 14.0265 12.9646ZM11.5693 16.1744C11.699 16.3434 11.8304 16.5114 11.9654 16.6757C12.0237 16.7466 12.0835 16.8168 12.1437 16.8863C11.4744 17.2164 10.7558 17.437 10.0121 17.5197C9.55551 17.5706 9.09324 17.6228 8.63347 17.5874C8.2557 17.558 7.88723 17.4542 7.75475 17.0628C7.66523 16.7982 7.62297 16.4996 7.5954 16.1984C8.91527 16.4154 10.2713 16.5987 11.5693 16.1744ZM11.0942 15.5249C11.1504 15.6054 11.2073 15.6856 11.265 15.7651C10.0608 16.1035 8.81036 15.9166 7.59254 15.7143C7.58072 15.7125 7.56962 15.7125 7.55816 15.7121C7.55136 15.618 7.5442 15.5259 7.53596 15.4354C8.70974 15.6473 9.91108 15.6796 11.0942 15.5249ZM7.38306 13.1644C7.38127 13.0763 7.38163 12.9879 7.38091 12.8995C8.11175 13.0778 8.86944 13.1089 9.61316 12.9908C9.64861 13.0652 9.68406 13.139 9.72059 13.2124C8.95498 13.3308 8.17465 13.3157 7.41422 13.1677C7.40312 13.1655 7.39309 13.1655 7.38306 13.1644ZM9.8785 13.6711C9.90122 13.6673 9.92328 13.6603 9.94403 13.6503C10.2607 14.2453 10.6107 14.8219 10.9925 15.3773C9.83624 15.5185 8.66524 15.4825 7.51985 15.2706C7.46184 14.7316 7.42136 14.1909 7.39846 13.6493C8.22418 13.7961 9.04776 13.8032 9.8785 13.6711ZM14.3734 13.2969C14.7345 13.6374 15.1008 13.9723 15.472 14.3017C14.6327 15.2194 13.7704 16.1379 12.7066 16.7978C12.2064 16.2865 11.7634 15.7075 11.3645 15.1031C12.4682 14.6874 13.4876 14.0755 14.3734 13.2969ZM15.8394 14.6257C15.834 14.6318 15.8283 14.6365 15.8236 14.6429C15.0708 15.6472 14.124 16.4901 13.0392 17.1215C12.9652 17.0539 12.8925 16.9848 12.8212 16.9142C13.8843 16.2471 14.7498 15.3279 15.5916 14.4073C15.6743 14.4804 15.7567 14.5534 15.8394 14.6257ZM16.3221 15.0479C16.3289 15.0536 16.3361 15.0579 16.3432 15.063C16.3855 15.093 16.3554 15.5134 16.3668 15.5908C16.4259 15.9972 16.7525 15.9306 17.0819 15.9356L17.3154 15.9395C17.131 16.8898 16.8678 17.8231 16.5283 18.7297C16.1523 18.6681 15.7799 18.5858 15.4129 18.4833C14.6663 18.2735 14.01 17.9111 13.4249 17.4492C14.4992 16.7949 15.4399 15.9431 16.1971 14.9387L16.3221 15.0479ZM22.9734 7.35285C26.3214 7.33457 29.6691 7.28754 33.0163 7.21177C33.0178 7.27801 33.0181 7.34425 33.0192 7.4105C27.5657 7.49554 22.1119 7.55844 16.658 7.59921C16.658 7.51721 16.6572 7.43449 16.6576 7.35249C18.7627 7.36359 20.8682 7.36395 22.9734 7.35285ZM32.881 15.324C31.5926 15.4905 30.2821 15.4815 28.9858 15.5055C27.6062 15.531 26.2265 15.5439 24.8465 15.5449C22.1766 15.5467 19.5068 15.4941 16.837 15.4522C16.7464 12.9424 16.6608 10.4305 16.658 7.91933C22.1135 7.87793 27.5688 7.81491 33.0239 7.73026C33.0595 10.2624 33.0118 12.795 32.881 15.324ZM23.34 16.6177C23.224 16.6369 23.1063 16.6444 22.9888 16.6399C22.838 16.6349 22.693 16.6231 22.5555 16.699C22.4334 16.7663 22.3374 16.8788 22.2397 16.9758L22.0245 17.1892L21.6986 16.0054C22.6092 16.0158 23.5198 16.0226 24.4304 16.024C24.1424 16.3369 23.7591 16.5456 23.34 16.6177ZM21.2689 18.1632C21.2409 17.42 21.089 16.6868 20.8195 15.9936C20.9463 15.995 21.0727 15.9975 21.1991 15.9993L21.7265 17.9161C21.5769 18.0053 21.424 18.0873 21.2689 18.1632ZM17.5514 18.845C17.9254 17.9231 18.1476 16.9468 18.2092 15.9538L18.4541 15.9581C19.1856 15.97 19.9168 15.9807 20.6484 15.9911C20.9334 16.7064 21.0902 17.4662 21.1117 18.2359C20.0028 18.74 18.7731 18.9144 17.5514 18.845ZM16.6888 18.7554C17.0302 17.8414 17.294 16.9003 17.4776 15.942L17.73 15.9463C17.6661 16.9299 17.4379 17.8957 17.0547 18.8038C16.9325 18.7898 16.8104 18.7737 16.6888 18.7554ZM24.9252 12.4572C24.8805 12.859 24.6875 13.2511 24.3831 13.5189C24.0265 13.8326 23.4983 13.9347 23.036 13.9339C22.7893 13.9339 22.5451 13.9017 22.3073 13.8355C22.1004 13.7778 21.883 13.7019 21.7115 13.5676C21.5282 13.4237 21.4565 13.2156 21.4791 12.9868C21.4963 12.8139 21.5654 12.5614 21.7366 12.4776C21.9231 12.3863 22.1444 12.5131 22.2934 12.6223C22.4817 12.7605 22.6464 12.9263 22.8638 13.0201C23.2613 13.1916 23.7533 13.062 24.0315 12.7337C24.3645 12.3416 24.3856 11.7572 24.1185 11.3239C23.989 11.115 23.809 10.9421 23.595 10.8212C23.4328 10.7295 23.2233 10.6565 23.0375 10.7005C22.9828 10.5327 22.9781 10.3527 23.0238 10.1823C23.0695 10.0119 23.1637 9.85842 23.2949 9.7405C23.3995 9.64812 23.3196 9.46622 23.185 9.46622L22.4595 9.46693L22.1065 9.46729L21.9299 9.46765C21.9052 9.46765 21.8522 9.47445 21.8139 9.47481C21.81 9.45333 21.8075 9.43041 21.8042 9.41322C21.7928 9.34972 21.7827 9.28597 21.7742 9.22201C21.7643 9.14419 21.7568 9.06609 21.7516 8.98783C22.561 8.89938 23.3776 8.8983 24.1872 8.9846C24.145 9.15254 24.0383 9.30329 23.947 9.44867L23.5434 10.0903C23.4829 10.1867 23.5563 10.3424 23.6788 10.3328C23.9083 10.3141 24.0898 10.4638 24.2392 10.6221C24.3942 10.7868 24.5278 10.9712 24.6381 11.1685C24.8568 11.5595 24.9754 12.0082 24.9252 12.4572ZM24.9002 10.982C24.765 10.7426 24.597 10.5234 24.401 10.3306C24.2721 10.2071 24.1192 10.0986 23.9495 10.0456L24.2624 9.54786C24.3978 9.3323 24.5263 9.10742 24.5267 8.84567C24.5271 8.75221 24.4554 8.6942 24.3688 8.68382C23.4662 8.5733 22.5536 8.57162 21.6506 8.67881C21.6225 8.68209 21.5953 8.69072 21.5704 8.70423C21.4927 8.70566 21.4189 8.75543 21.4236 8.8557C21.4336 9.06983 21.4569 9.2836 21.4949 9.4945C21.5106 9.58223 21.5228 9.67068 21.594 9.73155C21.675 9.80066 21.7878 9.78777 21.887 9.78741L22.8462 9.78634C22.6325 10.148 22.6131 10.6174 22.8176 10.9931C22.8552 11.0618 22.9673 11.1044 23.036 11.0532C23.205 10.9254 23.4568 11.094 23.5935 11.2043C23.755 11.3347 23.8857 11.5119 23.9455 11.7117C24.0669 12.1181 23.8897 12.6055 23.4639 12.7405C23.3652 12.7732 23.2604 12.7832 23.1572 12.7697C23.0541 12.7561 22.9554 12.7195 22.8684 12.6624C22.6694 12.5367 22.5082 12.3563 22.298 12.2467C22.0839 12.135 21.8343 12.0827 21.6062 12.1862C21.3853 12.2864 21.2607 12.5238 21.2005 12.7476C21.1361 12.9883 21.1368 13.2446 21.2378 13.4749C21.3301 13.6854 21.5174 13.843 21.7172 13.9486C22.1763 14.1914 22.7302 14.2841 23.2451 14.2462C23.7407 14.2097 24.2538 14.0696 24.6284 13.7284C24.9661 13.4201 25.1719 12.9836 25.2357 12.5346C25.312 11.9975 25.1677 11.4482 24.9002 10.982ZM29.0847 13.1412C29.0696 13.0506 28.9679 13.0144 28.8891 13.0273C28.611 13.0732 28.3287 13.0882 28.0473 13.072C27.9958 13.0693 27.9443 13.0655 27.893 13.0606L27.8554 13.057C27.8507 12.9041 27.8729 12.7423 27.8769 12.5933C27.8822 12.4017 27.8847 12.2105 27.8855 12.0193C27.8872 11.6498 27.8815 11.2799 27.8715 10.9103C27.8615 10.5408 27.8471 10.1713 27.831 9.80209C27.8156 9.44115 27.8342 9.05443 27.7394 8.70351C27.7197 8.63082 27.6577 8.59072 27.5865 8.58427C27.373 8.56458 27.1514 8.5499 26.9373 8.57031C26.7138 8.59179 26.5702 8.7472 26.4148 8.89401C26.1028 9.18969 25.8122 9.50727 25.5454 9.84435C25.5234 9.8719 25.5085 9.90451 25.5021 9.93924C25.4891 9.96863 25.485 10.0012 25.4901 10.0329C25.4953 10.0646 25.5095 10.0941 25.5311 10.1179C25.6421 10.249 26.0356 10.8871 26.2551 10.6597L26.6587 10.2411L26.6916 11.538L26.7124 12.3706L26.7231 12.787L26.7281 12.985L26.731 13.1039L26.7317 13.1351C26.5964 13.154 26.4374 13.1243 26.311 13.1132C26.1362 13.0982 25.9619 13.0896 25.7886 13.1229C25.7098 13.1383 25.6231 13.1605 25.5658 13.2206C25.5078 13.2819 25.4989 13.3624 25.4896 13.4423C25.4683 13.6334 25.4682 13.8262 25.4892 14.0174C25.496 14.0811 25.5315 14.1613 25.6049 14.1731C26.3404 14.2917 27.0862 14.326 27.8289 14.2612C28.1733 14.2308 28.5414 14.1975 28.8666 14.0722C29.0338 14.0077 29.1026 13.8856 29.1172 13.7112C29.1334 13.5214 29.1158 13.3284 29.0847 13.1412Z" fill="#174489"/>
</svg>
